samuel-11.sfdir
StartChar: zero
Encoding: 48 48 64
Width: 371
GlyphClass: 2
Flags: MW
HStem: 0 28<161.5 211 161.5 213.5> 472 28<161.5 211>
VStem: 16 96<217 283> 261 93<217 283 217 322>
LayerCount: 2
Fore
SplineSet
186 472 m 0
 137 472 112 397 112 247 c 0
 112 101 137 28 186 28 c 0
 236 28 261 101 261 247 c 0
 261 397 236 472 186 472 c 0
16 250 m 0
 16 316 30 372 57 419 c 0
 89 473 131 500 186 500 c 0
 241 500 283 473 314 419 c 0
 340 372 354 316 354 250 c 0
 354 184 340 128 314 81 c 0
 283 27 241 0 186 0 c 0
 131 0 89 27 57 81 c 0
 30 128 16 184 16 250 c 0
EndSplineSet
Validated: 1
EndChar
StartChar: four
Encoding: 52 52 4
Width: 363
GlyphClass: 2
Flags: W
HStem: 0 21G<168 276> 138 61<38 170 275 307>
VStem: 17 21<194 217> 170 106<0 138 199 401>
LayerCount: 2
Fore
SplineSet
170 401 m 1
 38 217 l 1
 38 194 l 1
 170 195 l 1
 170 401 l 1
188 457 m 25
 276 458 l 1
 275 199 l 1
 352 199 l 1
 307 137 l 1
 274 138 l 1
 276 0 l 1
 168 0 l 1
 170 138 l 1
 18 138 l 1
 17 218 l 1
 188 457 l 25
EndSplineSet
Validated: 1
EndChar
StartChar: six
Encoding: 54 54 11
Width: 356
GlyphClass: 2
Flags: HMW
HStem: 0 20 256 26<212 221> 483 17<205 205>
VStem: 16 105 211 115<379.5 398> 258 82
LayerCount: 2
Fore
SplineSet
273 137 m 3xf4
 273 219.0546875 219 254 177 254 c 3
 134 254 101 214.0546875 101 132 c 3
 101 55.9736328125 144.987304688 20 184 20 c 3
 221.013671875 20 273 62.97265625 273 137 c 3xf4
236 443 m 3
 236 448.099019514 232 452 226 456 c 0
 220 460 216 462 208 462 c 3
 190 462 146.94140625 435.639648438 140 430 c 0
 108 404 94 406 94 316 c 3
 94 299.029437252 97 294 103 264 c 1
 141 290 149 282 191 282 c 3
 225 282 254 288 292 256 c 0
 316.821338914 235.097819862 340 180.015148038 340 147 c 3xf4
 340 100.989131719 326 66 298 39 c 0
 270 12 191.01171875 0 149 0 c 3
 92.9912109375 0 55.6201171875 26.3955078125 21 80 c 0
 -10 128 0 187.9921875 0 254 c 3
 0 316.0078125 8 357 46 408 c 0
 84 459 155.990234375 473 206 473 c 3
 251.010742188 473 286.813476562 467.102539062 309 439 c 0
 324 420 326 415 326 388 c 3
 326 371 320 358 309 346 c 0
 298 334 278.036132812 324 264 324 c 3
 241 324 204 348 204 382 c 3xf8
 204 402 208 414 216 422 c 0
 227.045361017 433.045361017 236 432.950195312 236 443 c 3
EndSplineSet
EndChar
StartChar: eight
Encoding: 56 56 8
Width: 337
GlyphClass: 2
Flags: W
HStem: 0 23<101.526 215.539> 436 19<134.969 211.735>
VStem: 6 38<67.6306 174.182> 34 64<326.256 393.67> 256 42<304.188 406.541> 264 77<59.2187 181.331>
LayerCount: 2
Fore
SplineSet
161 233 m 1xe4
 126 218 l 2
 72.6993150435 195.156849304 44 164 44 120 c 3
 44 107.946289062 49.037590183 82.1594026024 64 66 c 0
 89 39 102 23 168 23 c 3
 198 23 212.416015625 26.84375 236 52 c 0
 251 68 264 88.9853515625 264 124 c 3
 264 157.015625 256.355632631 174.103873963 229 191 c 2
 161 233 l 1xe4
205 282 m 1
 236 304 l 2
 247.078792276 311.862368712 256 338 256 354 c 3
 256 392.052595181 231.640625 411.53125 225 417 c 0
 208 431 198 436 170 436 c 3
 147 436 128 424 120 416 c 0
 107 403 98 387 98 367 c 3xd8
 98 352 109.320444084 328.472927159 135 316 c 2
 205 282 l 1
234 268 m 1
 247 261 284.493164062 232.506835938 302 215 c 0
 330 187 341 156 341 130 c 0
 341 77 320.427075528 53.5089218813 286 24 c 0
 265 6 208.012498048 0 168 0 c 3
 123.988637831 0 73 4 44 33 c 0
 15 62 6 90 6 137 c 3xe4
 6 157 20 183 41 204 c 0
 57 220 83 228 131 247 c 1
 64 276 34 295.9857172 34 331 c 3
 34 370 49.7262082615 392.332465991 80 417 c 0
 107 439 131 455 168 455 c 3
 207 455 235.4810841 444.390538061 253 430 c 0
 281 407 298 385.015625 298 352 c 3
 298 337.041015625 297.219777725 323.524722156 280 302 c 0
 268 287 261 280 234 268 c 1
EndSplineSet
EndChar
StartChar: f
Encoding: 102 102 15
Width: 320
GlyphClass: 2
Flags: HMW
HStem: -173 37<-21 -15 -15 9 -21 33.5> 245 38<71.5 137 77 126 264 319> 437 37<319 350 350 357>
VStem: -102 58<-125 -110 -130 -84.5> 379 58<411 426 385.5 431>
LayerCount: 2
Fore
SplineSet
264 257 m 1
 203 82 l 2
 173 -17 108 -188 11 -188 c 0
 -34 -188 -76 -161 -76 -119 c 0
 -76 -80 -59 -42 -24 -42 c 0
 0 -42 20 -62 20 -86 c 0
 20 -116 -18 -110 -18 -140 c 0
 -18 -150 -7 -151 5 -151 c 2
 11 -151 l 2
 59 -151 72 -93 84 -43 c 2
 163 257 l 1
 114 257 l 2
 103 257 95 265 95 276 c 0
 95 287 103 295 114 295 c 2
 174 295 l 1
 206 391 255 474 350 474 c 0
 395 474 437 447 437 405 c 0
 437 366 420 328 385 328 c 0
 361 328 341 347 341 371 c 0
 341 401 379 396 379 426 c 0
 379 436 369 437 357 437 c 2
 350 437 l 2
 288 437 291 361 275 295 c 1
 330 295 l 2
 341 295 349 287 349 276 c 0
 349 265 341 257 330 257 c 2
 264 257 l 1
EndSplineSet
EndChar
StartChar: m
Encoding: 109 109 11
Width: 437
GlyphClass: 2
Flags: MW
HStem: -7 60<306 386.5> 0 21G<13 18 18 59 152 157 157 198> 233 66<43.5 119 74.5 190.5>
VStem: 326 87<212.5 247>
LayerCount: 2
Fore
SplineSet
-41 146 m 0x70
 -15 222 41 299 108 299 c 0
 130 299 144 279 149 254 c 1
 171 280 200 299 230 299 c 0
 253 299 268 278 274 253 c 1
 296 280 325 299 354 299 c 0
 387 299 413 264 413 230 c 0
 413 225 412 220 411 215 c 2
 376 66 l 2
 376 64 375 62 375 61 c 0
 375 56 377 53 382 53 c 0
 391 53 409 64 430 84 c 0
 434 88 439 90 443 90 c 0
 449 90 454 86 454 80 c 0
 454 76 451 72 447 68 c 0
 407 30 362 -7 316 -7 c 0xb0
 296 -7 284 6 284 25 c 0
 284 29 284 32 285 36 c 2
 324 201 l 2
 325 206 326 210 326 215 c 0
 326 225 322 233 312 233 c 0
 296 233 279 217 273 201 c 2
 220 18 l 2
 217 8 208 0 198 0 c 2
 157 0 l 2
 147 0 141 8 144 18 c 2
 196 201 l 2
 198 207 199 212 199 217 c 0
 199 226 195 233 186 233 c 0
 170 233 151 218 145 201 c 2
 83 18 l 2
 80 8 69 0 59 0 c 2
 18 0 l 2
 8 0 3 8 6 18 c 2
 69 201 l 2
 71 206 71 211 71 216 c 0
 71 226 68 233 58 233 c 0
 29 233 4 180 -8 146 c 0
 -12 135 -23 129 -31 129 c 0
 -38 129 -43 133 -43 140 c 0
 -43 142 -42 144 -41 146 c 0x70
EndSplineSet
Validated: 1
EndChar
StartChar: p
Encoding: 112 112 12
Width: 364
GlyphClass: 2
Flags: HMW
HStem: -146 28<112 112> -8 40<184.5 193 150 226> 243 49<51 68.5 232 242>
VStem: 258 99<184 210.5 167.5 219>
LayerCount: 2
Fore
SplineSet
112 -146 m 4
 74 -146 34 -141 -4 -141 c 0
 -43 -141 -82 -146 -119 -146 c 0
 -128 -146 -41 -136 -41 -129 c 0
 -41 -111 -149.534315134 -127.887900156 -85 -116 c 0
 -9 -102 -38 -111 -31 -91 c 2
 71 209 l 2
 73.3406238795 215.884187881 93 246 93 252 c 0
 93 260 95 267 86 267 c 0
 53 267 34.5041142754 220.209874261 19 183 c 0
 14 171 -19 153 -28 153 c 0
 -36 153 -25 180 -25 188 c 0
 -25 190 -1.97265625 191.9140625 -5 191 c 0
 -196.479492188 133.166992188 90.6640625 347.444335938 127 334 c 0
 159.825195312 321.854492188 140 271 147 240 c 1
 176 271 214 292 250 292 c 0
 319 292 357 243 357 178 c 0
 357 157 353 134 345 111 c 0
 325 53 254 -8 198 -8 c 0
 171 -8 146 -3 125 9 c 0
 121 11 118 12 114 12 c 0
 107 12 100 9 98 3 c 2
 69 -83 l 2
 68 -85 68 -88 68 -90 c 0
 68 -110 119 -79 112 -118 c 4
 110.400238871 -126.91295486 34 -118 34 -124 c 4
 34 -131 121 -146 112 -146 c 4
233 243 m 0
 177 243 131 136 131 70 c 0
 131 48 204 26 226 26 c 0
 290 26 319 163 311 208 c 0
 307.849609375 225.721679688 251 243 233 243 c 0
EndSplineSet
Validated: 37
EndChar
StartChar: r
Encoding: 114 114 22
Width: 218
GlyphClass: 2
Flags: MW
HStem: 0 21G<13 18 18 58> 263 43<179.5 243> 273 32<47.5 54.5>
VStem: -30 28
LayerCount: 2
Fore
SplineSet
227 306 m 0xd0
 259 306 287 293 287 265 c 0
 287 241 266 218 244 218 c 0
 231 218 220 223 215 233 c 0
 208 246 210 263 190 263 c 0xd0
 169 263 138 241 132 219 c 2
 80 18 l 2
 77 8 68 0 58 0 c 2
 18 0 l 2
 8 0 2 8 5 18 c 2
 62 241 l 2
 63 245 64 249 64 253 c 0
 64 264 60 273 49 273 c 0
 29 273 4 242 -2 219 c 0
 -6 212 -12 209 -18 209 c 0
 -25 209 -30 214 -30 221 c 0
 -30 224 -29 227 -27 230 c 0
 -15 274 25 305 70 305 c 0xb0
 99 305 122 292 134 270 c 1
 162 293 196 306 227 306 c 0xd0
EndSplineSet
Validated: 1
EndChar
StartChar: s
Encoding: 115 115 33
Width: 206
GlyphClass: 2
Flags: MW
HStem: 0 27<90.5 115.5 90.5 135> 268 24<158 177>
VStem: 22 42<48 55.5 41.5 78.5> 63 61<214.5 222> 163 60<75.5 106.5> 189 52<240 244 220.5 251.5>
LayerCount: 2
Fore
SplineSet
180 216 m 0xd4
 180 226 189 235 189 245 c 0
 189 258 183 268 171 268 c 0
 145 268 124 248 124 223 c 0xd4
 124 206 140 195 155 186 c 0
 188 167 223 144 223 106 c 0
 223 45 167 0 103 0 c 0
 60 0 22 28 22 68 c 0
 22 89 34 110 53 110 c 0
 71 110 85 96 85 78 c 0
 85 65 64 62 64 49 c 0
 64 34 82 27 99 27 c 0
 132 27 163 47 163 78 c 0xe8
 163 135 63 138 63 195 c 0
 63 249 108 292 162 292 c 0
 218 292 241 258 241 230 c 0
 241 211 230 194 211 194 c 0
 193 194 180 205 180 216 c 0xd4
EndSplineSet
Validated: 1
EndChar
StartChar: z
Encoding: 122 122 15
Width: 285
GlyphClass: 2
Flags: MW
HStem: -28 83<197 214.5> 0 21G<10.5 15.5> 11 55<88 93 93 94> 182 85<40 115> 237 20G<254.5 259.5>
VStem: 253 33<40 96.5>
LayerCount: 2
Fore
SplineSet
264 127 m 0x84
 283 127 286 82 286 66 c 0x24
 286 14 241 -28 188 -28 c 0x84
 146 -28 115 11 73 11 c 0x24
 65 11 57 12 49 12 c 0
 39 12 30 11 23 4 c 0
 20 1 17 0 14 0 c 0
 7 0 0 7 0 14 c 0
 0 17 1 21 4 24 c 2
 190 200 l 1
 156 194 119 195 85 189 c 0
 71 187 56 182 45 182 c 0
 35 182 28 186 28 197 c 0
 28 229 66 267 99 267 c 0x54
 131 267 161 245 193 245 c 0
 201 245 208 244 216 244 c 0
 227 244 238 245 246 253 c 0
 249 256 253 257 256 257 c 0
 263 257 270 250 270 243 c 0
 270 240 268 236 265 233 c 2
 88 66 l 1
 93 66 l 2x2c
 135 66 176 55 218 55 c 0
 238 55 253 72 253 93 c 0
 253 100 249 107 249 114 c 0
 249 122 257 127 264 127 c 0x84
EndSplineSet
Validated: 1
EndChar
StartChar: dalSegno
Encoding: 57413 57413 32
Width: 1000
Flags: HO
LayerCount: 2
Fore
SplineSet
491 17 m 0
 501.150539752 24.8081075012 511 39 511 52 c 3
 511 70 504.93359375 86.9287109375 492 99 c 0
 477 113 464 116 447 122 c 0
 422.409820597 130.678886848 392 130 392 156 c 3
 392 178.022715546 403.976203958 188 425 188 c 3
 439 188 446 185 452 181 c 0
 457.581563057 177.278957962 461 178 462 165 c 1
 443 165 l 1
 443 146 l 1
 512 146 l 1
 512 165 l 1
 488 165 l 1
 488 183 481 192 469 202 c 0
 453.014395588 215.32133701 432 218 412 218 c 3
 391 218 379.776064136 214.461392124 364 200 c 0
 352 189 351 178 351 159 c 3
 351 141 352.531124091 120.181801566 367 110 c 0
 394 91 413.776963034 84.4656087675 442 73 c 4
 474 60 478 54 478 47 c 7
 478 39 476.39825399 34.4787777932 470 30 c 0
 460 23 454 21 437 21 c 3
 428 21 418 22 405 28 c 0
 396.386340966 31.9755349387 387 38 385 46 c 1
 406 46 l 1
 405 64 l 1
 335 64 l 1
 336 44 l 1
 359 44 l 1
 363 32 370 24 380 16 c 0
 396.098022905 3.12158167566 408 0 429 0 c 3
 457 0 478 7 491 17 c 0
561 43 m 3
 574 43 581 35.2970585408 581 20 c 3
 581 7.95840542121 569 0 559 0 c 3
 551 0 538 11 538 19 c 3
 538 30 545 43 561 43 c 3
291 44 m 3
 307 44 315 35 315 19 c 27
 315 5 303 0 289 0 c 3
 275 0 270 13 270 27 c 27
 270 38 280 44 291 44 c 3
106 161 m 1
 105 36 l 25
 160 35 l 1
 177 40 182 44 192 59 c 0
 202.669871313 75.0048069702 203 85 203 104 c 3
 203 123 200 135 189 150 c 0
 181.044015594 160.849069644 163 162 148 162 c 1
 106 161 l 1
19 212 m 25
 151 212 l 1
 189 210 200 203 222 182 c 24
 243 163 253 144 253 116 c 27
 253 82 247 60 225 34 c 24
 207 13 192 7 159 5 c 9
 15 6 l 1
 15 30 l 1
 56 30 l 1
 65 30 69 31 72 34 c 0
 74.5495097568 36.5495097568 76 46 76 54 c 1
 75 170 l 1
 74 179 72 184 65 189 c 0
 58 194 52 195 40 196 c 1
 19 196 l 1
 19 212 l 25
EndSplineSet
EndChar
StartChar: segno
Encoding: 57415 57415 30
Width: 1000
Flags: H
LayerCount: 2
Fore
SplineSet
406 114 m 19
 381 114 364 103.013511047 364 66 c 3
 364 32.9848519616 382 22 413 22 c 3
 464 22 482.377063112 30.7427651294 506 58 c 0
 532 88 536 104 536 143 c 3
 536 182 520.170829696 205.809459186 494 235 c 0
 468 264 451 278 418 297 c 0
 387.360269201 314.641057127 364 318 312 323 c 1
 392 495 l 1
 365 501 l 1
 280 322 l 5
 244 322 226 322 196 322 c 4
 150 322 131 326 92 341 c 0
 66 351 47 369 47 397 c 3
 47 423.47640459 57 439 77 439 c 3
 100 439 104 400 127 400 c 27
 153 400 170 425 170 451 c 3
 170 482 139 499 108 499 c 27
 75 499 52 490 30 465 c 24
 8 440 5 416 5 383 c 27
 5 349 9.71002224744 326.782770633 30 300 c 0
 55 267 72.3916015625 256.8046875 110 238 c 0
 148 219 194 214 243 215 c 1
 144 29 l 1
 176 17 l 1
 276 214 l 1
 318 214 346 212 387 208 c 0
 417.660274713 205.008753687 440.932253953 197.905532891 466 180 c 0
 487 165 502 146 502 121 c 3
 502 100.975015605 494 85 477 85 c 3
 437.987181594 85 436 114 406 114 c 19
59 106 m 27
 82 106 104 89 104 66 c 27
 104 42 82 26 58 26 c 27
 32 26 8 44 8 70 c 27
 8 94 35 106 59 106 c 27
484 497 m 27
 507 497 529 480 529 457 c 27
 529 431 504 415 478 415 c 27
 455 415 436 435 436 458 c 27
 436 482 460 497 484 497 c 27
EndSplineSet
EndChar
StartChar: gClef
Encoding: 57424 57424 30
Width: 672
Flags: W
HStem: -566 55<138.256 251.646> -238 45<219.951 351> 882 62.729<386.072 487.471>
VStem: 0 134<-493.608 -395.003> 25 105<-72.1581 175.993> 206 46<-24.2655 152.475> 322 34<304.556 434> 336 35<13.4 194> 351 44<-183 -12.4> 499 75<668.737 871.611> 516 82<-94.3099 129.611>
LayerCount: 2
Fore
SplineSet
371 198 m 1xe520
 373 138 386 -2 395 -183 c 1xe480
 433 -181 449 -164 460 -153 c 0
 471.59765625 -141.40234375 484.538894368 -115.733321378 500 -82 c 0
 511 -58 516 -3.2470703125 516 31 c 3
 516 88.1401785086 504.447912543 129.493972988 467 163 c 0
 448 180 419 191 371 198 c 1xe520
499 812 m 3xe440
 499 852.049968789 482 882 451 882 c 3
 432 882 416.876018488 878.438009244 400 870 c 0
 386 863 373 847 365 834 c 0
 335.92794212 786.757905946 336 649 346 559 c 1
 378 574 432 602 455 631 c 0
 497.409904504 684.473357852 499 758.990566877 499 812 c 3xe440
332 246 m 1
 328 292 323 377 322 434 c 1xe6
 294 410 260 373 224 318 c 0
 208.773499027 294.737290181 165.358769712 215.402374933 156 190 c 0
 142 152 130 86.0665927567 130 56 c 3
 130 -27.955078125 131 -108 179 -146 c 0
 229.203352087 -185.744320402 264 -191 351 -193 c 1xec80
 336 194 l 1xe5
 318 190 302 184 288 170 c 0
 261.458007812 143.458007812 252 116.032226562 252 54 c 3
 252 13.552734375 272 -38 316 -76 c 1
 314 -108 l 1
 269 -90 255 -80 236 -56 c 0
 219.229492188 -34.81640625 206 -10.3037109375 206 31 c 3
 206 109.025390625 214 134 234 162 c 0
 257.859375 195.40234375 296 234 332 246 c 1
349 909 m 0
 369.670173103 932.934246602 404.650222902 944.728959565 439.999998383 944.728959565 c 3
 484.965352883 944.728959565 531.283696231 926.231767486 548 889 c 0
 570 840 574 800.768554688 574 746 c 3xec40
 574 714 567.74609375 664.543945312 526 611 c 0
 480 552 436 528 356 478 c 1
 365 255 l 1
 431 252 512 238 550 182 c 0
 587.687580339 126.460407922 598 72.943359375 598 10 c 3
 598 -49 579 -116 538 -160 c 0
 513.878085889 -185.886932217 458 -216 406 -230 c 1
 406 -230 405.74609375 -318.889648438 394 -360 c 0
 382 -402 344.174804688 -456.001953125 338 -463 c 0
 308 -497 312 -497 272 -529 c 0
 233.546875 -559.762695312 224.666015625 -566 178 -566 c 0
 137 -566 79.9482421875 -558.374023438 45 -522 c 0
 12.3330078125 -488 0 -462 0 -426 c 3
 0 -395.333007812 8.7685546875 -377.787109375 29 -356 c 0
 42 -342 55.3251953125 -335 86 -335 c 3
 114.674804688 -335 122.826171875 -339.008789062 141 -359 c 0
 151 -370 159 -399.958007812 159 -412 c 3
 159 -437 134 -452.108398438 134 -466 c 3xf620
 134 -491.01953125 143.987304688 -511 182 -511 c 3
 218.650390625 -511 258 -490 274 -475 c 0
 303.768554688 -447.091796875 328 -434 354 -361 c 0
 376.854492188 -296.831054688 362 -238 362 -238 c 1
 216 -232 123 -214 80 -150 c 0
 50.7224921829 -106.424174412 25 -20.099960032 25 105 c 3xec
 25 158.375976562 53.6357899276 254.669875573 83 312 c 0
 104 353 155 405 189 436 c 0
 233.985359504 477.016063077 262 500 299 524 c 1
 288 632 277.754882812 692.940429688 290 786 c 0
 295.000175361 823.999976926 315.607736554 870.334689171 349 909 c 0
EndSplineSet
EndChar
StartChar: uniE050
Encoding: 57424 57424 30
Width: 670
Flags: W
HStem: -622 209 -270 28 -254 39 -196 10 153 106
VStem: 0.00976562 89 158.01 221 178.01 42 252.01 41 493.01 21 607.01 63
LayerCount: 2
Fore
SplineSet
397 202 m 1xbc60
 399 142 398 14 398 -164 c 1
 436 -162 436 -151 447 -140 c 0
 458.597413505 -128.402586495 475.538797573 -113.733532568 491 -80 c 0
 502 -56 519.609142801 -2.24443471465 520 32 c 0
 520.433844155 70.0106798051 507.077027 112.439382286 491 140 c 0
 477 164 442 200 397 202 c 1xbc60
497 812 m 0
 496.51824322 838.014866145 480 882 449 882 c 0
 430 882 418 880 402 870 c 0
 371.887103812 851.179439882 395.61923349 881.951120662 366 838 c 0
 335 792 336 640 344 559 c 1
 372 574 435.157492104 609.008071663 453 631 c 0
 496 684 498 758 497 812 c 0
331 239 m 1
 327 285 330 350 329 407 c 1
 277 381 251.333007812 341 220 307 c 0
 188.666992188 273 164.046218619 191.720397489 151 168 c 0
 129 128 128 126 128 56 c 0
 128 -27.955078125 120.599775966 -112.479820773 170 -152 c 0
 220 -192 248.554962192 -193 349 -193 c 1
 346 206 l 1
 302 190 317.999722217 193.000303032 294 171 c 0
 262.479492188 142.10546875 256 130 256 56 c 0
 256 -2.8203125 265 -46 314 -76 c 1
 312 -108 l 1
 267 -90 272 -104 244 -68 c 0
 223 -41 210 -18.009765625 210 34 c 0xdde0
 210 96 199 97 237 158 c 0
 264.638671875 202.368164062 283 223 331 239 c 1
437 945 m 0
 484 946 528 927 546 889 c 0
 572.723404829 832.583923139 572 800.768554688 572 746 c 0
 572 714 565.746114339 664.54392926 524 611 c 0
 478 552 461 533 381 483 c 1
 382 266 l 1
 447 266 491.37938051 236.943341625 517 198 c 0
 567 122 574 75.943359375 574 13 c 0
 574 -46 536 -120 506 -150 c 0
 472.984851962 -183.015148038 450 -224 381 -238 c 1
 381 -238 379.384953426 -324.075232872 371 -366 c 0
 365 -396 330.174772389 -453.001924626 324 -460 c 0
 294 -494 287 -504 247 -536 c 0
 208.546848472 -566.762521222 172.666015625 -566 126 -566 c 0
 85 -566 27.9480847401 -558.374174713 -7 -522 c 0
 -39.6669921875 -488 -52 -462 -52 -426 c 0
 -52 -395.333007812 -43.2312656448 -377.787516848 -23 -356 c 0
 -10 -342 3.33397591033 -334.286496527 34 -335 c 0
 62.6669921875 -335.666992188 69 -342 90 -359 c 0
 110.62125251 -375.693394889 112 -396 114 -422 c 0xbe60
 115.382691151 -439.974984957 82.5552537341 -452.118656647 82 -466 c 0
 81 -491 92 -510 130 -511 c 0
 166.63744762 -511.964143358 205.113022744 -487.281438004 222 -475 c 0
 255 -451 272.59099271 -432.170266403 302 -366 c 0
 326 -312 322 -256 322 -256 c 1
 250 -255 207.43386344 -251.430776433 168 -235 c 0
 132 -220 108 -194 78 -150 c 0
 48.4261580149 -106.625031755 25.8835971804 33.0576094962 23 105 c 0
 20.8623046875 158.333007812 39.2089795343 236.000002662 81 312 c 0
 113.274414062 370.693359375 134.653522843 390.740927049 182 432 c 0
 252 493 249 485 290 520 c 1
 299 623 277.755330691 709.940513254 290 803 c 0
 295 841 313.607421875 870.334960938 347 909 c 0
 366 931 398.335945452 944.177360542 437 945 c 0
EndSplineSet
EndChar
StartChar: uniE05C
Encoding: 57436 57436 18
Width: 1364
Flags: HO
HStem: 63 39<367.491 452.724> 602 99<202 425.673> 824 89<197 369.252>
VStem: 0 42<95 1158> 103 94<97 501 701 824 913 1158> 110 89<97 602 701 824> 326 24<121.539 220.399> 434 98<534.449 630.5> 458 85<105.657 172.227>
LayerCount: 2
Back
Fore
SplineSet
103 1158 m 1xfa
 197 1158 l 1
 194 913 l 1
 318 914 l 1
 356 917 381.200195312 941.858398438 396 963 c 0
 417 993 408.999319275 1043.99991699 404 1085 c 0
 402.965820312 1093.48144531 398 1138 411 1138 c 3
 423 1138 429.787410742 1078.96582325 436 1041 c 0
 445 986 457 951 457 895 c 3
 457 877.970613634 447.126059937 853.815131906 434 845 c 0
 420.528612502 835.952954785 412.534583055 829.650177446 380 825 c 1
 197 824 l 1
 198 701 l 1
 443 701 l 1
 475 701 490.236319023 698.512437252 504 686 c 0
 526 666 532 645 532 616 c 3xfb
 532 579 505.904296875 524.038085938 492 489 c 0
 467 426 461.738700136 432.916822555 436 370 c 0
 418 326 406.396213377 299.939598304 385 260 c 0
 370 232 350 211 350 179 c 3
 350 122.964297096 361.965527486 102 420 102 c 3
 438 102 446 110 458 128 c 0
 470.949606469 147.424409703 460.778459447 182 497 182 c 3
 516.104492188 182 543 160.160255681 543 132 c 3xf280
 543 115 528.289232174 98.9917170572 514 88 c 0
 488 68 471 63 440 63 c 3
 403 63 380.9584959 65.9616294421 356 93 c 0
 332 119 326 134.98889026 326 180 c 3
 326 223.011626335 354.343054049 254.96413758 374 305 c 0
 396 361 407.341024357 390.500362264 425 446 c 0
 432 468 434 504 434 539 c 3
 434 556 433.84765625 571.42578125 426 586 c 0
 419 599 414 602 396 602 c 1
 202 602 l 1
 197 97 l 5
 103 97 l 1xf7
 103 1158 l 1xfa
0 1158 m 1
 42 1158 l 1
 42 95 l 1
 0 95 l 1
 0 1158 l 1
EndSplineSet
EndChar
StartChar: fClef
Encoding: 57442 57442 29
Width: 717
Flags: W
HStem: -504 100<186.642 372.616> -244 53<230.69 372.251> -150 116<579.033 663.418> -10 139<158.5 253.123> 61 117<569.534 658.92> 221 31<163.06 332.117>
VStem: -98 84<-201.164 13.1376> 126 19<-80.5322 -13.3644> 444 70<-110.988 98.1051> 557.5 123<-125.499 -53.5331 76.1837 156.468>
LayerCount: 2
Fore
SplineSet
240 129 m 3xf7c0
 204.64453125 129 184.579101562 113.327148438 158 91 c 0
 133 70 126 30.0830078125 126 -24 c 3
 126 -64.822265625 134.969726562 -117.673828125 163 -162 c 0
 196.420898438 -214.849609375 261.158662448 -244 310 -244 c 3
 427.958007812 -244 514 -145.713867188 514 -27 c 3
 514 36.775390625 495.9832185 115.251810773 459 162 c 0
 415.486328125 217.002929688 345.146551489 252 270 252 c 3
 115.996753281 252 38.7529296875 180.94140625 6 140 c 0
 -54 65 -98 10.037109375 -98 -112 c 3
 -98 -158.043457733 -95 -246 -10 -384 c 0
 34.995135533 -457.050925924 168 -504 268 -504 c 3
 324.035702904 -504 402 -478 452 -444 c 0
 532.962819357 -388.945282838 570 -358 658 -271 c 1
 656 -268 l 1
 530 -359 445.541015625 -404 290 -404 c 3
 214 -404 164.11077837 -380.866392155 77 -309 c 4
 37 -276 -14 -179.006835938 -14 -107 c 3
 -14 -11.9951171875 6 93 44 135 c 0
 103.962890625 201.275390625 196.99305589 221 269 221 c 3
 333.007812023 221 376.999844764 178.999868646 399 153 c 0
 436.224609375 109.0078125 444 30.8701171875 444 -27 c 3
 444 -115.204101562 378.030296077 -191 312 -191 c 3
 283.19921875 -191 222.217773438 -187.532226562 189 -145 c 0
 158.877929688 -106.430664062 145 -58.8740234375 145 -33 c 3
 145 -24 147 -18 150 -15 c 0
 153 -12 156 -10 161 -10 c 3
 165.123046875 -10 184.033203125 -41.9560546875 192 -48 c 0
 221 -70 246.096679688 -80 282 -80 c 3
 322.025390625 -80 371 -42.560546875 371 -3 c 3
 371 27.74609375 362.979492188 65.5546875 337 89 c 0
 296 126 266.245117188 129 240 129 c 3xf7c0
570 -53 m 0
 581.333007812 -39 597.666992188 -34 617 -34 c 0
 634.333007812 -34 651.666992188 -38 664 -50 c 0
 676.333007812 -62 680.5 -72.6669921875 680.5 -90 c 0
 680.5 -103.333007812 676.5 -115.333007812 668.5 -126 c 0
 656.5 -142 639.833007812 -150 618.5 -150 c 0
 603.166992188 -150 589.833007812 -145 578.5 -135 c 0
 564.5 -122.333007812 557.5 -106.666992188 557.5 -88 c 0
 557.5 -73.3330078125 560.762695312 -64.4111328125 570 -53 c 0
569 157 m 0
 580.333007812 171 595.666992188 178 615 178 c 0
 632.333007812 178 647.166992188 172 659.5 160 c 0
 671.833007812 148 678 133 678 115 c 0
 678 101.666992188 673.92578125 94.72265625 666 84 c 0
 654.666992188 68.6669921875 637.333007812 61 616 61 c 0xefc0
 600 61 586.208007812 65.859375 575 76 c 0
 561 88.6669921875 555 99.3330078125 555 118 c 0
 555 132.666992188 559.666992188 145.666992188 569 157 c 0
EndSplineSet
EndChar
StartChar: gClefChange
Encoding: 57466 57466 45
Width: 1000
VWidth: 0
Flags: W
HStem: -203.2 13.6006<222.846 288 304 377.336> 172.8 34.4004<317.6 410.459> 840 23.2002<342.051 428.938>
VStem: -91.2012 108.801<-491.671 -379.734> -46.4004 117.609<-73.7152 101.195> 105.6 32.8008<-59.9314 90.4829> 266.4 20<496.684 756.91> 288 16<-424.866 -203.2 -189.6 -93.5211 253.95 317.6> 304 13.5996<22.118 172.8> 484.8 96<-73.3415 100.84> 494.4 24<585.851 733.437>
LayerCount: 2
Fore
SplineSet
317.599609375 172.799804688 m 1xe6c0
 321.599609375 130.400390625 317.599609375 -48.7998046875 304 -189.599609375 c 1xe7
 386.400390625 -189.599609375 400 -176 428.799804688 -155.200195312 c 0
 477.888671875 -119.747070312 484.799804688 -58.400390625 484.799804688 0 c 0
 484.799804688 41.599609375 480.731445312 69.4462890625 472 88 c 0
 459.200195312 115.200195312 440 137.599609375 418.400390625 151.200195312 c 0
 403.865234375 160.352539062 387.200195312 171.200195312 317.599609375 172.799804688 c 1xe6c0
488.799804688 732 m 0
 481.420898438 763.158203125 462.982421875 800.471679688 457.599609375 807.200195312 c 0
 444.799804688 823.200195312 419.200195312 840 382.400390625 840 c 0
 355.200195312 840 336.720703125 831.161132812 321.599609375 812.799804688 c 0
 299.200195312 785.599609375 286.400390625 744.799804688 286.400390625 702.400390625 c 0
 286.400390625 654.872070312 291.200195312 468 297.599609375 403.200195312 c 1
 376 454.400390625 428.635742188 492.342773438 454.400390625 527.200195312 c 0
 481.599609375 564 494.400390625 618.666015625 494.400390625 660.799804688 c 0xe620
 494.400390625 669.333984375 496 701.599609375 488.799804688 732 c 0
299.200195312 207.200195312 m 1
 296 244 296 276 288.799804688 317.599609375 c 1
 247.200195312 296.799804688 225.06640625 284.799804688 200 257.599609375 c 0
 174.93359375 230.400390625 164.478515625 213.915039062 151.208984375 196.798828125 c 0
 97.8759765625 127.998046875 71.208984375 65.5986328125 71.208984375 9.5986328125 c 0
 71.208984375 -57.5654296875 87.990234375 -97.599609375 127.200195312 -129.599609375 c 0
 176.298828125 -169.671875 180 -167.19921875 215.200195312 -180.799804688 c 0
 232.619140625 -187.530273438 267.200195312 -189.599609375 288 -189.599609375 c 1xef
 304 173.599609375 l 1xe680
 250.400390625 172.799804688 210.400390625 163.200195312 172.799804688 119.200195312 c 0
 150.576171875 93.1943359375 138.400390625 59.2001953125 138.400390625 0 c 0
 138.400390625 -30.400390625 157.206054688 -71.2919921875 173.599609375 -92 c 0
 188.799804688 -111.200195312 232 -135.200195312 272.799804688 -147.200195312 c 1
 273.599609375 -164.799804688 l 1
 212 -148 185.688476562 -127.712890625 155.200195312 -104 c 0
 133.599609375 -87.2001953125 105.599609375 -41.607421875 105.599609375 0 c 0
 105.599609375 49.599609375 123.200195312 111.733398438 148.799804688 144.799804688 c 0
 174.400390625 177.866210938 238.400390625 200 299.200195312 207.200195312 c 1
384.799804688 863.200195312 m 0
 422.400390625 864 476 829.599609375 489.599609375 792 c 0
 506.586914062 745.037109375 518.400390625 687.014648438 518.400390625 643.200195312 c 0xef20
 518.400390625 586.400390625 508.874023438 512.572265625 481.599609375 465.599609375 c 0
 452.799804688 416 369.599609375 363.200195312 305.599609375 323.200195312 c 1
 315.200195312 207.200195312 l 1
 355.200195312 208 410.385742188 202.423828125 438.400390625 192 c 0
 472.799804688 179.200195312 511.426757812 166.974609375 548 117.599609375 c 0
 580 74.400390625 580.799804688 44.7998046875 580.799804688 0 c 0
 580.799804688 -47.2001953125 542.196289062 -113.881835938 510.400390625 -143.200195312 c 0
 448.799804688 -200 374.400390625 -200.799804688 304 -203.200195312 c 1
 304.000976562 -388.000976562 l 2
 304.000976562 -394.475585938 301.80859375 -415.801757812 300.799804688 -423.200195312 c 0
 296 -458.400390625 244 -516 200.799804688 -530.400390625 c 0
 163.42578125 -542.857421875 102.776367188 -550.51953125 67.2001953125 -539.200195312 c 0
 32 -528 -24.04296875 -505.099609375 -52.001953125 -476.000976562 c 0
 -78.134765625 -448.80078125 -91.201171875 -420.80078125 -91.201171875 -392.000976562 c 0
 -91.201171875 -367.466796875 -82.001953125 -346.133789062 -63.6015625 -328 c 0
 -45.201171875 -309.866210938 -23.734375 -301.029296875 0.798828125 -301.599609375 c 0
 23.732421875 -302.133789062 44.2666015625 -307.200195312 60.7998046875 -322.400390625 c 0
 77.333984375 -337.599609375 87.2001953125 -354.393554688 87.2001953125 -376.799804688 c 0
 87.2001953125 -401.599609375 82.400390625 -427.466796875 66.400390625 -444.799804688 c 0
 47.984375 -464.75 17.599609375 -450.400390625 17.599609375 -481.599609375 c 0xf740
 17.599609375 -501.743164062 80 -512.799804688 103.200195312 -517.599609375 c 0
 118.946289062 -520.857421875 181.599609375 -523.200195312 212.799804688 -508.799804688 c 0
 250.966796875 -491.184570312 267.200195312 -460 281.599609375 -421.599609375 c 0
 284.221679688 -414.609375 287.172851562 -392.455078125 287.203125 -385.599609375 c 2
 288 -203.200195312 l 1
 230.400390625 -202.400390625 167.6171875 -196.036132812 134.400390625 -188 c 0
 84.7998046875 -176 64.4521484375 -166.744140625 26.400390625 -134.400390625 c 0
 -5.599609375 -107.200195312 -46.400390625 -57.599609375 -46.400390625 0 c 0
 -46.400390625 42.666015625 -38.400390625 105.599609375 -4.7998046875 166.400390625 c 0
 21.1181640625 213.299804688 112.799804688 296.799804688 139.200195312 313.599609375 c 0
 207.337890625 356.959960938 247.200195312 379.200195312 280.799804688 396 c 1
 270.400390625 480.799804688 266.400390625 556.848632812 266.400390625 656.799804688 c 0
 266.400390625 709.06640625 269.056640625 759.36328125 297.599609375 809.599609375 c 0
 317.599609375 844.799804688 353.869140625 862.541992188 384.799804688 863.200195312 c 0
EndSplineSet
EndChar
StartChar: cClefChange
Encoding: 57467 57467 46
Width: 1000
VWidth: 0
Flags: W
HStem: -362.4 7.2002<273.227 297.776> -264 20G<319.193 342.4> -106.4 81.6006<169.6 251.2> 24.7998 81.6006<169.6 251.2> 244 21G<319.193 342.4> 355.2 7.2002<273.227 297.776>
VStem: 0 26.4004<-400 400> 68.7998 100.8<-400 -106.4 -24.7998 24.7998 106.4 400> 232.8 20<-340.216 -260.601 260.601 340.216> 282.4 73.5996<-152.398 -90.5774 90.5774 152.398> 313.6 57.6006<-343.296 -270.3 270.3 343.296>
LayerCount: 2
Fore
SplineSet
169.599609375 -400 m 1xffc0
 68.7998046875 -400 l 1
 68.7998046875 400 l 1
 169.599609375 400 l 1
 169.599609375 106.400390625 l 1
 251.200195312 105.599609375 l 1
 251.200195312 105.599609375 264 106.400390625 271.200195312 112 c 0
 281.002929688 119.625 282.400390625 124 282.400390625 128 c 0xffc0
 282.400390625 151.213867188 273.599609375 160 259.200195312 192 c 0
 247.861328125 217.198242188 243.79296875 231.15234375 237.599609375 258.400390625 c 0
 233.599609375 276 232.799804688 293.232421875 232.799804688 315.200195312 c 0
 232.799804688 324.799804688 240 339.200195312 246.400390625 345.599609375 c 0
 256.471679688 355.671875 272.775390625 362.400390625 285.599609375 362.400390625 c 0
 295.438476562 362.400390625 327.647460938 361.9921875 342.400390625 349.599609375 c 0
 362.400390625 332.799804688 371.200195312 316.115234375 371.200195312 291.200195312 c 0
 371.200195312 266.400390625 353.599609375 244 331.200195312 244 c 0
 307.186523438 244 288 259.126953125 288 276.799804688 c 0
 288 286.43359375 288.799804688 294.400390625 300 301.599609375 c 0
 311.138671875 308.760742188 313.599609375 313.376953125 313.599609375 326.400390625 c 0xffa0
 313.599609375 337.62890625 304.799804688 347.200195312 300 350.400390625 c 0
 294.801757812 353.865234375 291.495117188 355.200195312 281.599609375 355.200195312 c 0
 268.799804688 355.200195312 252.799804688 326.7890625 252.799804688 319.200195312 c 0
 252.799804688 296 255.126953125 285.037109375 261.599609375 264 c 0
 264.799804688 253.599609375 271.52734375 235.720703125 288 217.599609375 c 0
 312 191.200195312 323.653320312 171.005859375 333.599609375 153.599609375 c 0
 349.599609375 125.599609375 356 107.21484375 356 85.599609375 c 0
 356 68.7998046875 350.400390625 48.7998046875 340.799804688 44 c 0
 311.672851562 29.4365234375 297.599609375 24.7998046875 270.400390625 24.7998046875 c 2
 169.599609375 24.7998046875 l 1
 169.599609375 -24.7998046875 l 1
 270.400390625 -24.7998046875 l 2
 297.599609375 -24.7998046875 311.672851562 -29.4365234375 340.799804688 -44 c 0
 350.400390625 -48.7998046875 356 -68.7998046875 356 -85.599609375 c 0xffc0
 356 -107.21484375 349.599609375 -125.599609375 333.599609375 -153.599609375 c 0
 323.653320312 -171.005859375 312 -191.200195312 288 -217.599609375 c 0
 271.52734375 -235.720703125 264.799804688 -253.599609375 261.599609375 -264 c 0
 255.126953125 -285.037109375 252.799804688 -296 252.799804688 -319.200195312 c 0
 252.799804688 -326.790039062 268.799804688 -355.200195312 281.599609375 -355.200195312 c 0
 291.495117188 -355.200195312 294.801757812 -353.865234375 300 -350.400390625 c 0
 304.799804688 -347.200195312 313.599609375 -337.62890625 313.599609375 -326.400390625 c 0
 313.599609375 -313.376953125 311.138671875 -308.760742188 300 -301.599609375 c 0
 288.799804688 -294.400390625 288 -286.43359375 288 -276.799804688 c 0
 288 -259.126953125 307.186523438 -244 331.200195312 -244 c 0
 353.599609375 -244 371.200195312 -266.400390625 371.200195312 -291.200195312 c 0xffa0
 371.200195312 -316.115234375 362.400390625 -332.799804688 342.400390625 -349.599609375 c 0
 327.647460938 -361.9921875 295.438476562 -362.400390625 285.599609375 -362.400390625 c 0
 272.775390625 -362.400390625 256.471679688 -355.671875 246.400390625 -345.599609375 c 0
 240 -339.200195312 232.799804688 -324.799804688 232.799804688 -315.200195312 c 0
 232.799804688 -293.232421875 233.599609375 -276 237.599609375 -258.400390625 c 0
 243.79296875 -231.15234375 247.861328125 -217.198242188 259.200195312 -192 c 0
 273.599609375 -160 282.400390625 -151.213867188 282.400390625 -128 c 0
 282.400390625 -124 281.002929688 -119.625 271.200195312 -112 c 0
 264 -106.400390625 251.200195312 -105.599609375 251.200195312 -105.599609375 c 1
 169.599609375 -106.400390625 l 1
 169.599609375 -400 l 1xffc0
0 -400 m 1
 0 400 l 5
 26.400390625 400 l 1
 26.400390625 -400 l 1
 0 -400 l 1
EndSplineSet
EndChar
StartChar: uniE07C
Encoding: 57468 57468 48
Width: 1000
VWidth: 0
Flags: W
HStem: -403.2 80<133.881 311.47> -195.2 42.4004<178.245 313.943> -120 92.7998<463.226 530.735> -8 111.2<126.8 202.498> 48.7998 93.6006<455.628 527.136> 182.4 19.1992<147.357 256.761>
VStem: -78.4004 46.4004<-164.778 20.1216> 100.8 15.2002<-64.4257 -10.6916> 363.2 48<-103.859 90.1777> 446 98.4004<-100.399 -42.8269 57.497 125.174>
LayerCount: 2
Fore
SplineSet
192 103.200195312 m 0xf7c0
 163.715820312 103.200195312 147.663085938 90.662109375 126.400390625 72.7998046875 c 0
 106.400390625 56 100.799804688 24.06640625 100.799804688 -19.2001953125 c 0
 100.799804688 -51.857421875 107.975585938 -94.138671875 130.400390625 -129.599609375 c 0
 157.13671875 -171.879882812 208.926757812 -195.200195312 248 -195.200195312 c 0
 342.366210938 -195.200195312 411.200195312 -116.571289062 411.200195312 -21.599609375 c 0
 411.200195312 29.419921875 396.786132812 92.201171875 367.200195312 129.599609375 c 0
 332.388671875 173.602539062 276.1171875 201.599609375 216 201.599609375 c 0
 92.7978515625 201.599609375 31.001953125 144.752929688 4.7998046875 112 c 0
 -43.2001953125 52 -78.400390625 8.029296875 -78.400390625 -89.599609375 c 0
 -78.400390625 -126.434570312 -76 -196.799804688 -8 -307.200195312 c 0
 27.99609375 -365.640625 134.400390625 -403.200195312 214.400390625 -403.200195312 c 0
 259.228515625 -403.200195312 321.599609375 -382.400390625 361.599609375 -355.200195312 c 0
 426.370117188 -311.15625 456 -286.400390625 526.400390625 -216.799804688 c 1
 524.799804688 -214.400390625 l 1
 424 -287.200195312 356.432617188 -323.200195312 232 -323.200195312 c 0
 171.200195312 -323.200195312 119.411132812 -303.744140625 49.599609375 -246.400390625 c 0
 4.7998046875 -209.599609375 -32 -137.60546875 -32 -80 c 0
 -32 -3.99609375 -8 75.2001953125 22.400390625 108.799804688 c 0
 70.3701171875 161.8203125 168.689453125 182.400390625 215.200195312 182.400390625 c 0
 256.0703125 182.400390625 311.200195312 147.200195312 328.799804688 126.400390625 c 0
 358.579101562 91.2060546875 363.200195312 21.49609375 363.200195312 -24.7998046875 c 0
 363.200195312 -95.36328125 320.8046875 -152.799804688 249.599609375 -152.799804688 c 0
 226.559570312 -152.799804688 177.774414062 -150.025390625 151.200195312 -116 c 0
 127.102539062 -85.14453125 116 -47.099609375 116 -26.400390625 c 0
 116 -19.2001953125 117.599609375 -14.400390625 120 -12 c 0
 122.400390625 -9.599609375 124.799804688 -8 128.799804688 -8 c 0
 132.098632812 -8 147.2265625 -33.564453125 153.599609375 -38.400390625 c 0
 176.799804688 -56 196.876953125 -64 225.599609375 -64 c 0
 257.620117188 -64 296.799804688 -34.048828125 296.799804688 -2.400390625 c 0
 296.799804688 22.197265625 290.383789062 52.443359375 269.599609375 71.2001953125 c 0
 236.799804688 100.799804688 212.99609375 103.200195312 192 103.200195312 c 0xf7c0
456 -42.400390625 m 0
 465.06640625 -31.2001953125 478.133789062 -27.2001953125 493.599609375 -27.2001953125 c 0
 507.466796875 -27.2001953125 521.333984375 -30.400390625 531.200195312 -40 c 0
 541.06640625 -49.599609375 544.400390625 -58.1337890625 544.400390625 -72 c 0
 544.400390625 -82.666015625 541.200195312 -92.2666015625 534.799804688 -100.799804688 c 0
 525.200195312 -113.599609375 511.866210938 -120 494.799804688 -120 c 0
 482.533203125 -120 471.866210938 -116 462.799804688 -108 c 0
 451.599609375 -97.8662109375 446 -85.333984375 446 -70.400390625 c 0
 446 -58.666015625 448.610351562 -51.529296875 456 -42.400390625 c 0
455.200195312 125.599609375 m 0
 464.266601562 136.799804688 476.533203125 142.400390625 492 142.400390625 c 0
 505.866210938 142.400390625 517.733398438 137.599609375 527.599609375 128 c 0
 537.466796875 118.400390625 542.400390625 106.400390625 542.400390625 92 c 0
 542.400390625 81.333984375 539.140625 75.7783203125 532.799804688 67.2001953125 c 0
 523.733398438 54.93359375 509.866210938 48.7998046875 492.799804688 48.7998046875 c 0xefc0
 480 48.7998046875 468.966796875 52.6875 460 60.7998046875 c 0
 448.799804688 70.93359375 444 79.466796875 444 94.400390625 c 0
 444 106.133789062 447.733398438 116.533203125 455.200195312 125.599609375 c 0
EndSplineSet
EndChar
StartChar: timeSig2
Encoding: 57474 57474 37
Width: 397
Flags: W
HStem: 0 71<128 313> 265 88<111.651 167.271> 400 22<123.256 232.567>
VStem: 32 79<337.5 392.247> 276 87<262.382 373.831>
LayerCount: 2
Fore
SplineSet
0 0 m 1
 0 45 l 25
 208 219 l 25
 229 240 247 249 263 274 c 24
 274 291 276 303 276 323 c 3
 276 346 276 358 258 373 c 24
 238 390 210 400 184 400 c 3
 161 400 145 398 131 393 c 0
 120.857129201 389.377546143 111 381 111 370 c 3
 111 358 122.893143119 356.228495168 135 353 c 0
 150 349 155.330078125 351.334960938 170 344 c 0
 178 340 181 334.022715546 181 312 c 3
 181 302 176 291 155 278 c 0
 141.556127607 269.677602804 131 265 115 265 c 3
 91 265 71 274 53 290 c 0
 41.5908203125 300.140625 32 330 32 345 c 3
 32 369 43 390 75 406 c 0
 97.803508502 417.401754251 132 422 182 422 c 3
 229 422 285 420 321 394 c 0
 357 368 363 356 363 311 c 3
 363 285 351 265 337 246 c 0
 319.705424725 222.528790699 315 219 293 200 c 1
 128 71 l 1
 313 72 l 5
 342 128 l 1
 369 128 l 1
 365 103 361.123046875 88.9853515625 358 64 c 0
 355 40 355 27 355 2 c 1
 0 0 l 1
EndSplineSet
EndChar
StartChar: uniE082
Encoding: 57474 57474 41
Width: 397
Flags: W
HStem: 0 75<114 326.48> 457 19<132.805 249.776>
VStem: 30 71.6382<361 422.318> 332 26<308.918 390.531> 356 14<125.671 176>
LayerCount: 2
Fore
SplineSet
271 439 m 0xf0
 258.084960938 446.694335938 224 457 182 457 c 3
 164.970613634 457 137 454 114 437 c 0
 112.221953275 435.685791551 101.638233137 427.004089329 101.638233137 411.000000385 c 3
 101.638233137 406.527965457 103.214331696 402.029904969 107 398 c 0
 138 365 177 387.179356624 177 362 c 3
 177 341.975015605 165 312 152 299 c 0
 139 286 113 277 96 277 c 3
 78 277 58 294 51 304 c 0
 40.4570230762 319.061395605 30 352 30 370 c 3
 30 405 48 422 79 445 c 0
 92.6762666125 455.146907487 130 476 177 476 c 3
 244.007462271 476 260.943469101 470.910331812 296 449 c 0
 336 424 358 377 358 334 c 3xf0
 358 296 350.78047395 271.070108343 311 232 c 0
 255 177 221 169 114 75 c 1
 262 75 l 2
 288 75 298.887640858 78.7153560323 312 86 c 0
 321 91 338 107 340 110 c 0
 350.46606237 125.699093555 356 133 356 176 c 1
 370 176 l 1xe8
 370 105 358 27 350 0 c 1
 0 0 l 1
 36 54 42.6270505781 65.66885395 87 113 c 0
 117 145 190.567230324 198.955275089 241 238 c 0
 272 262 332 310 332 333 c 3
 332 373.012498047 317.999567786 410.999274511 271 439 c 0xf0
EndSplineSet
EndChar
StartChar: timeSig3
Encoding: 57475 57475 39
Width: 343
Flags: W
HStem: 0 29 71 103<69.5 89 51 89.5> 241 18<116 119.5> 326 103<69.5 89> 471 29
VStem: 15 50<62.5 134> 238 89
LayerCount: 2
Fore
SplineSet
116 241 m 1
 116 259 l 1
 123 259 130 260 138 263 c 0
 204 286 237 318 238 359 c 0
 239 390 228 418 206 441 c 0
 186 462 164 472 140 471 c 0
 120 470 103 466 88 457 c 0
 73 448 65 441 65 434 c 0
 65 431 67 429 72 429 c 0
 107 429 126 412 127 378 c 0
 128 343 109 326 69 326 c 0
 33 326 15 346 15 386 c 0
 15 464 69 502 178 500 c 0
 216 499 251 486 281 458 c 0
 311 430 326 396 327 357 c 0
 328 327 320 304 306 287 c 0
 295 274 276 262 249 250 c 1
 302 227 328 192 327 143 c 0
 326 104 311 70 281 42 c 0
 251 14 216 0 178 0 c 0
 69 0 15 38 15 114 c 0
 15 154 33 174 69 174 c 0
 109 174 128 157 127 122 c 0
 126 88 107 71 72 71 c 0
 67 71 65 69 65 66 c 0
 65 59 73 52 87 44 c 0
 103 34 120 30 140 29 c 0
 164 28 186 39 207 61 c 0
 228 83 239 110 238 141 c 0
 237 182 204 214 138 237 c 0
 133 239 126 240 116 241 c 1
EndSplineSet
EndChar
StartChar: timeSig4
Encoding: 57476 57476 40
Width: 363
Flags: W
HStem: -250 21G<168 276> -112 56<38 170 275 327.478>
VStem: 17 21<-56 -33> 170 106<-250 -112 -51 151>
LayerCount: 2
Fore
SplineSet
274 -112 m 1
 276 -250 l 1
 168 -250 l 1
 170 -112 l 1
 18 -112 l 1
 17 -32 l 1
 188 207 l 25
 276 208 l 1
 275 -51 l 1
 352 -51 l 1
 352 -51 340 -66 334 -76 c 4
 327.311555179 -87.1474080343 325 -96 324 -112 c 5
 274 -112 l 1
170 151 m 1
 38 -33 l 1
 38 -56 l 1
 170 -55 l 1
 170 151 l 1
EndSplineSet
EndChar
StartChar: timeSigCommon
Encoding: 57482 57482 31
Width: 414
Flags: HW
HStem: -250 27<193.5 238> 23 138<327.5 337.5 321.5 344.5> 224 22<185 268.5>
VStem: 0 114 350 64<88.5 173> 386 21<-72 -72>
LayerCount: 2
Fore
SplineSet
0 0 m 0xf4
 0 66 21 123 62 172 c 0
 103 221 154 246 216 246 c 0
 273 246 320 233 358 207 c 0
 396 181 414 145 414 98 c 0
 414 79 405 62 387 46 c 0
 369 30 352 23 337 23 c 0
 318 23 300 28 284 38 c 0
 263 51 252 71 252 98 c 0
 252 116 260 131 277 143 c 0
 294 155 312 161 331 161 c 0
 344 161 350 164 350 171 c 0xf8
 350 175 347 180 341 186 c 0
 317 211 287 224 250 224 c 0
 240 224 230 223 221 221 c 0
 148 206 114 131.014814002 114 -4 c 7
 114 -150.013697988 154 -223 228 -223 c 0
 269 -223 305 -208 338 -178 c 0
 371 -148 387 -113 386 -72 c 1
 407 -72 l 1
 406 -85 402 -103 395 -125 c 0
 388 -147 380 -163 372 -173 c 0
 355 -194 332 -213 304 -228 c 0
 276 -243 250 -250 226 -250 c 0
 161 -250 107 -225 64 -174 c 0
 21 -125 0 -67 0 0 c 0xf4
EndSplineSet
EndChar
StartChar: uniE0A2
Encoding: 57506 57506 13
Width: 1000
Flags: H
LayerCount: 2
Fore
SplineSet
0 236 m 31
 -76 236 -162 203 -162 127 c 3
 -162 50 -77 12 0 12 c 27
 85 12 184 43 184 128 c 3
 184 211 83 236 0 236 c 31
0 254 m 27
 113 254 263 243 263 130 c 27
 263 16 114 0 0 0 c 27
 -106 0 -247 8 -247 114 c 27
 -247 225 -111 254 0 254 c 27
  Spiro
    0 254 o
    118.291 246.98 o
    220.005 212.315 o
    263 130 o
    220.227 45.6874 o
    118.735 8.35061 o
    0 0 o
    -111.038 5.98468 o
    -206.593 37.384 o
    -247 114 o
    -207.702 199.567 o
    -113.261 242.396 o
    0 0 z
  EndSpiro
EndSplineSet
EndChar
StartChar: uniE0A3
Encoding: 57507 57507 16
Width: 1000
Flags: H
AnchorPoint: "stemDownNW" -275 98 basechar 0
AnchorPoint: "stemUpSE" 141 155 basechar 0
LayerCount: 2
Fore
SplineSet
-123 178 m 0
 -170 158 -239.013645345 105.992202936 -214 63 c 0
 -182 8 -66 14 -8 42 c 0
 32.634765625 61.6171875 109.215925481 123.122130409 87 162 c 0
 55 218 -64.5140665573 202.887631252 -123 178 c 0
-101 242 m 3
 -1.42108547152e-14 242 141 217.20128616 141 155 c 3
 141 74.9937502441 90.1798382909 0 -10 0 c 3
 -120.072703247 0 -275 -14.0061780814 -275 98 c 7
 -275 200.004901843 -178.006493233 242 -101 242 c 3
EndSplineSet
EndChar
StartChar: uniE0A4
Encoding: 57508 57508 7
Width: 1000
Flags: H
AnchorPoint: "stemUpSE" 182 160 basechar 0
AnchorPoint: "stemDownNW" -190 95 basechar 0
LayerCount: 2
Fore
SplineSet
-179 98 m 1048
-191 96 m 3
 -191 248.05262247 -35 244 65 244 c 3
 117.038447325 244 183 198.052734375 183 160 c 3
 183 48 91.3161394173 10 -67 10 c 3
 -120 10 -191 43 -191 96 c 3
EndSplineSet
EndChar
StartChar: clefs.C
Encoding: 57711 57711 3
Width: 694
GlyphClass: 2
Flags: MW
HStem: -507 20 -435 120 -90 35 48 38 315 120 486 21
VStem: 0 127 169 42 308 62
LayerCount: 2
Fore
SplineSet
296 -69 m 0
 274 -41.6669921875 247.00390625 -18.99609375 215.00390625 -0.99609375 c 1
 244.336914062 15.00390625 270.336914062 37.00390625 293.00390625 65.00390625 c 0
 323.00390625 102.336914062 341.670898438 144.00390625 349.00390625 190.00390625 c 1
 355.00390625 154.670898438 364.336914062 129.670898438 377.00390625 115.00390625 c 0
 395.00390625 94.3369140625 423.670898438 84.669921875 463.00390625 86.0029296875 c 0
 504.336914062 87.3359375 534.336914062 110.3359375 553.00390625 155.002929688 c 0
 568.336914062 191.002929688 575.00390625 236.002929688 573.00390625 290.002929688 c 0
 568.336914062 420.669921875 531.00390625 486.002929688 461.00390625 486.002929688 c 0
 437.670898438 486.002929688 416.170898438 480.502929688 396.50390625 469.502929688 c 0
 376.836914062 458.502929688 367.00390625 449.002929688 367.00390625 441.002929688 c 0
 367.00390625 436.3359375 372.00390625 434.3359375 382.00390625 435.002929688 c 0
 398.00390625 436.3359375 414.00390625 432.002929688 430.00390625 422.002929688 c 0
 446.00390625 412.002929688 454.00390625 397.669921875 454.00390625 379.002929688 c 0
 454.00390625 360.3359375 447.170898438 345.002929688 433.50390625 333.002929688 c 0
 419.836914062 321.002929688 402.669921875 315.002929688 382.002929688 315.002929688 c 0
 361.3359375 315.002929688 343.502929688 321.502929688 328.502929688 334.502929688 c 0
 313.502929688 347.502929688 306.002929688 363.669921875 306.002929688 383.002929688 c 0
 306.002929688 413.002929688 322.502929688 441.169921875 355.502929688 467.502929688 c 0
 388.502929688 493.8359375 429.669921875 507.002929688 479.002929688 507.002929688 c 0
 540.3359375 507.002929688 590.668945312 486.002929688 630.001953125 444.002929688 c 0
 667.334960938 404.669921875 688.001953125 354.669921875 692.001953125 294.002929688 c 0
 696.668945312 227.3359375 674.001953125 169.502929688 624.001953125 120.502929688 c 0
 574.001953125 71.5029296875 514.668945312 47.3359375 446.001953125 48.0029296875 c 0
 424.668945312 48.0029296875 400.001953125 53.669921875 372.001953125 65.0029296875 c 1
 361.334960938 36.3359375 341.66796875 13.6689453125 313.000976562 -2.998046875 c 1
 324.333984375 -8.998046875 335.000976562 -17.3310546875 345.000976562 -27.998046875 c 0
 358.333984375 -41.998046875 368.333984375 -56.6650390625 375.000976562 -71.998046875 c 1
 401.000976562 -60.6650390625 425.333984375 -54.998046875 448.000976562 -54.998046875 c 0
 516.66796875 -54.3310546875 576.000976562 -78.1640625 626.000976562 -126.497070312 c 0
 676.000976562 -174.830078125 698.66796875 -232.330078125 694.000976562 -298.997070312 c 0
 690.000976562 -358.997070312 669.333984375 -407.997070312 632.000976562 -445.997070312 c 0
 593.333984375 -486.6640625 543.333984375 -506.997070312 482.000976562 -506.997070312 c 0
 432.66796875 -506.997070312 390.66796875 -493.330078125 356.000976562 -465.997070312 c 0
 324.000976562 -440.6640625 308.000976562 -412.997070312 308.000976562 -382.997070312 c 0
 308.000976562 -363.6640625 315.66796875 -347.497070312 331.000976562 -334.497070312 c 0
 346.333984375 -321.497070312 364.333984375 -314.997070312 385.000976562 -314.997070312 c 0
 405.000976562 -314.997070312 421.833984375 -321.1640625 435.500976562 -333.497070312 c 0
 449.16796875 -345.830078125 456.000976562 -361.330078125 456.000976562 -379.997070312 c 0
 456.000976562 -398.6640625 448.16796875 -412.831054688 432.500976562 -422.498046875 c 0
 416.833984375 -432.165039062 401.000976562 -436.33203125 385.000976562 -434.999023438 c 0
 375.000976562 -434.33203125 370.000976562 -436.33203125 370.000976562 -440.999023438 c 0
 370.000976562 -448.999023438 379.66796875 -458.666015625 399.000976562 -469.999023438 c 0
 418.333984375 -481.33203125 439.666992188 -486.999023438 463 -486.999023438 c 0
 533.666992188 -486.999023438 571.333984375 -422.666015625 576.000976562 -293.999023438 c 0
 578.000976562 -239.999023438 571.333984375 -194.999023438 556.000976562 -158.999023438 c 0
 536.66796875 -114.33203125 506.66796875 -91.33203125 466.000976562 -89.9990234375 c 0
 426.66796875 -88.666015625 398.000976562 -98.3330078125 380.000976562 -119 c 0
 367.333984375 -133.666992188 358.000976562 -158.666992188 352.000976562 -194 c 1
 345.333984375 -148.666992188 326.666992188 -107 296 -69 c 0
169.00390625 -506.99609375 m 1
 169.00390625 503.00390625 l 1
 211.00390625 503.00390625 l 1
 211.00390625 -506.99609375 l 1
 169.00390625 -506.99609375 l 1
0.00390625 -506.99609375 m 1
 0.00390625 503.00390625 l 1
 127.00390625 503.00390625 l 1
 127.00390625 -506.99609375 l 1
 0.00390625 -506.99609375 l 1
EndSplineSet
EndChar
StartChar: clefs.C_change
Encoding: 57712 57712 4
Width: 555
GlyphClass: 2
Flags: MW
HStem: -405.6 16 -348 96<308 308> -72 28 38.4004 30.3994 252 96<305 305> 388.8 16.7998
VStem: 0 101.6 135.2 33.5996 246.4 49.5996
LayerCount: 2
Fore
SplineSet
236.799804688 -55.2001953125 m 0
 219.200195312 -33.3330078125 197.599609375 -15.2001953125 172 -0.7998046875 c 1
 195.466796875 12 216.266601562 29.599609375 234.400390625 52 c 0
 258.400390625 81.8662109375 273.333007812 115.200195312 279.200195312 152 c 1
 284 123.733398438 291.466796875 103.733398438 301.599609375 92 c 0
 316 75.466796875 338.93359375 67.7333984375 370.400390625 68.7998046875 c 0
 403.466796875 69.8662109375 427.466796875 88.2666015625 442.400390625 124 c 0
 454.666992188 152.799804688 460 188.799804688 458.400390625 232 c 0
 454.666992188 336.533203125 424.799804688 388.799804688 368.799804688 388.799804688 c 0
 350.133789062 388.799804688 332.93359375 384.400390625 317.200195312 375.599609375 c 0
 301.466796875 366.799804688 293.599609375 359.200195312 293.599609375 352.799804688 c 0
 293.599609375 349.06640625 297.599609375 347.466796875 305.599609375 348 c 0
 318.400390625 349.06640625 331.200195312 345.599609375 344 337.599609375 c 0
 356.799804688 329.599609375 363.200195312 318.133789062 363.200195312 303.200195312 c 0
 363.200195312 288.266601562 357.733398438 276 346.799804688 266.400390625 c 0
 335.866210938 256.799804688 322.133789062 252 305.599609375 252 c 0
 289.06640625 252 274.799804688 257.200195312 262.799804688 267.599609375 c 0
 250.799804688 278 244.799804688 290.93359375 244.799804688 306.400390625 c 0
 244.799804688 330.400390625 258 352.93359375 284.400390625 374 c 0
 310.799804688 395.06640625 343.733398438 405.599609375 383.200195312 405.599609375 c 0
 432.266601562 405.599609375 472.533203125 388.799804688 504 355.200195312 c 0
 533.866210938 323.733398438 550.400390625 283.733398438 553.599609375 235.200195312 c 0
 557.333007812 181.866210938 539.200195312 135.599609375 499.200195312 96.400390625 c 0
 459.200195312 57.2001953125 411.733398438 37.8662109375 356.799804688 38.400390625 c 0
 339.733398438 38.400390625 320 42.93359375 297.599609375 52 c 1
 289.06640625 29.06640625 273.333007812 10.93359375 250.400390625 -2.400390625 c 1
 259.466796875 -7.2001953125 268 -13.8662109375 276 -22.400390625 c 0
 286.666992188 -33.599609375 294.666992188 -45.3330078125 300 -57.599609375 c 1
 320.799804688 -48.533203125 340.266601562 -44 358.400390625 -44 c 0
 413.333007812 -43.466796875 460.799804688 -62.533203125 500.799804688 -101.200195312 c 0
 540.799804688 -139.866210938 558.93359375 -185.866210938 555.200195312 -239.200195312 c 0
 552 -287.200195312 535.466796875 -326.400390625 505.599609375 -356.799804688 c 0
 474.666992188 -389.333007812 434.666992188 -405.599609375 385.599609375 -405.599609375 c 0
 346.133789062 -405.599609375 312.533203125 -394.666992188 284.799804688 -372.799804688 c 0
 259.200195312 -352.533203125 246.400390625 -330.400390625 246.400390625 -306.400390625 c 0
 246.400390625 -290.93359375 252.533203125 -278 264.799804688 -267.599609375 c 0
 277.06640625 -257.200195312 291.466796875 -252 308 -252 c 0
 324 -252 337.466796875 -256.93359375 348.400390625 -266.799804688 c 0
 359.333007812 -276.666992188 364.799804688 -289.06640625 364.799804688 -304 c 0
 364.799804688 -318.93359375 358.533203125 -330.266601562 346 -338 c 0
 333.466796875 -345.733398438 320.799804688 -349.06640625 308 -348 c 0
 300 -347.466796875 296 -349.06640625 296 -352.799804688 c 0
 296 -359.200195312 303.733398438 -366.93359375 319.200195312 -376 c 0
 334.666992188 -385.06640625 351.733398438 -389.599609375 370.400390625 -389.599609375 c 0
 426.93359375 -389.599609375 457.06640625 -338.133789062 460.799804688 -235.200195312 c 0
 462.400390625 -192 457.06640625 -156 444.799804688 -127.200195312 c 0
 429.333007812 -91.466796875 405.333007812 -73.06640625 372.799804688 -72 c 0
 341.333007812 -70.93359375 318.400390625 -78.6669921875 304 -95.2001953125 c 0
 293.866210938 -106.93359375 286.400390625 -126.93359375 281.599609375 -155.200195312 c 1
 276.266601562 -118.93359375 261.333007812 -85.599609375 236.799804688 -55.2001953125 c 0
135.200195312 -405.599609375 m 1
 135.200195312 402.400390625 l 1
 168.799804688 402.400390625 l 1
 168.799804688 -405.599609375 l 1
 135.200195312 -405.599609375 l 1
0 -405.599609375 m 1
 0 402.400390625 l 1
 101.599609375 402.400390625 l 1
 101.599609375 -405.599609375 l 1
 0 -405.599609375 l 1
EndSplineSet
EndChar
StartChar: clefs.F
Encoding: 57713 57713 90
Width: 717
GlyphClass: 2
Flags: HMW
HStem: -170 122<607.333 622.667 604.333 625.667> -85 158 47 122<608 622.667 604.333 626.667> 211 38<198 221>
VStem: 0 84 371 146<-2 9 -53.3335 53.3335> 554 123<-116.667 -101.333 -116.667 -100.667 99.6665 115>
LayerCount: 2
Fore
SplineSet
240 129 m 3
 204.64453125 129 184.579101562 113.327148438 158 91 c 0
 133 70 126 30.0830078125 126 -24 c 3
 126 -64.822265625 134.969726562 -117.673828125 163 -162 c 0
 196.420898438 -214.849609375 261.158662448 -244 310 -244 c 3
 427.958007812 -244 514 -145.713867188 514 -27 c 3
 514 36.775390625 495.9832185 115.251810773 459 162 c 0
 415.486328125 217.002929688 345.146551489 252 270 252 c 3
 115.996753281 252 38.7529296875 180.94140625 6 140 c 0
 -54 65 -98 10.037109375 -98 -112 c 3
 -98 -158.043457733 -95 -246 -10 -384 c 0
 34.995135533 -457.050925924 168 -504 268 -504 c 3
 324.035702904 -504 402 -478 452 -444 c 0
 532.962819357 -388.945282838 570 -358 658 -271 c 1
 656 -268 l 1
 530 -359 445.541015625 -404 290 -404 c 3
 214 -404 149.263569235 -379.680789015 62 -308 c 0
 6 -262 -40 -172.006835938 -40 -100 c 3
 -40 -4.9951171875 -10 94 28 136 c 0
 87.962890625 202.275390625 210.862304688 228 269 228 c 3
 320.088159098 228 389 184 411 158 c 0
 448.224411952 114.007513147 454 26.8701171875 454 -31 c 3
 454 -119.204101562 401.005859375 -191 312 -191 c 3
 283.19921875 -191 222.217773438 -187.532226562 189 -145 c 0
 158.877929688 -106.430664062 145 -58.8740234375 145 -33 c 3
 145 -24 147 -18 150 -15 c 0
 153 -12 156 -10 161 -10 c 3
 165.123046875 -10 184.033203125 -41.9560546875 192 -48 c 0
 221 -70 246.096679688 -80 282 -80 c 3
 322.025390625 -80 371 -42.560546875 371 -3 c 3
 371 27.74609375 362.979492188 65.5546875 337 89 c 0
 296 126 266.245117188 129 240 129 c 3
570 -53 m 0x9e
 581.333007812 -39 597.666992188 -34 617 -34 c 0
 634.333007812 -34 651.666992188 -38 664 -50 c 0
 676.333007812 -62 680.5 -72.6669921875 680.5 -90 c 0
 680.5 -103.333007812 676.5 -115.333007812 668.5 -126 c 0
 656.5 -142 639.833007812 -150 618.5 -150 c 0
 603.166992188 -150 589.833007812 -145 578.5 -135 c 0
 564.5 -122.333007812 557.5 -106.666992188 557.5 -88 c 0
 557.5 -73.3330078125 560.762695312 -64.4111328125 570 -53 c 0x9e
569 157 m 0
 580.333007812 171 595.666992188 178 615 178 c 0
 632.333007812 178 647.166992188 172 659.5 160 c 0
 671.833007812 148 678 133 678 115 c 0
 678 101.666992188 673.92578125 94.72265625 666 84 c 0
 654.666992188 68.6669921875 637.333007812 61 616 61 c 0x3e
 600 61 586.208007812 65.859375 575 76 c 0
 561 88.6669921875 555 99.3330078125 555 118 c 0
 555 132.666992188 559.666992188 145.666992188 569 157 c 0
EndSplineSet
EndChar
StartChar: clefs.G
Encoding: 57715 57715 125
Width: 670
GlyphClass: 2
Flags: HMW
HStem: -622 209 -270 28 -254 39 -196 10 153 106
VStem: 0.00976562 89 158.01 221 178.01 42 252.01 41 493.01 21 607.01 63
LayerCount: 2
Back
Fore
SplineSet
397 202 m 1xbc60
 399 142 398 14 398 -164 c 1
 436 -162 436 -151 447 -140 c 0
 458.597413505 -128.402586495 475.538797573 -113.733532568 491 -80 c 0
 502 -56 519.609142801 -2.24443471465 520 32 c 0
 520.433844155 70.0106798051 507.077027 112.439382286 491 140 c 0
 477 164 442 200 397 202 c 1xbc60
497 812 m 0
 496.51824322 838.014866145 480 882 449 882 c 0
 430 882 418 880 402 870 c 0
 371.887103812 851.179439882 395.61923349 881.951120662 366 838 c 0
 335 792 336 640 344 559 c 1
 372 574 435.157492104 609.008071663 453 631 c 0
 496 684 498 758 497 812 c 0
331 239 m 1
 327 285 330 350 329 407 c 1
 277 381 251.333007812 341 220 307 c 0
 188.666992188 273 164.046218619 191.720397489 151 168 c 0
 129 128 128 126 128 56 c 0
 128 -27.955078125 120.599775966 -112.479820773 170 -152 c 0
 220 -192 248.554962192 -193 349 -193 c 1
 346 206 l 1
 302 190 317.999722217 193.000303032 294 171 c 0
 262.479492188 142.10546875 256 130 256 56 c 0
 256 -2.8203125 265 -46 314 -76 c 1
 312 -108 l 1
 267 -90 272 -104 244 -68 c 0
 223 -41 210 -18.009765625 210 34 c 0xdde0
 210 96 199 97 237 158 c 0
 264.638671875 202.368164062 283 223 331 239 c 1
437 945 m 0
 484 946 528 927 546 889 c 0
 572.723404829 832.583923139 572 800.768554688 572 746 c 0
 572 714 565.746114339 664.54392926 524 611 c 0
 478 552 461 533 381 483 c 1
 382 266 l 1
 447 266 491.37938051 236.943341625 517 198 c 0
 567 122 574 75.943359375 574 13 c 0
 574 -46 536 -120 506 -150 c 0
 472.984851962 -183.015148038 450 -224 381 -238 c 1
 381 -238 379.384953426 -324.075232872 371 -366 c 0
 365 -396 330.174772389 -453.001924626 324 -460 c 0
 294 -494 287 -504 247 -536 c 0
 208.546848472 -566.762521222 172.666015625 -566 126 -566 c 0
 85 -566 27.9480847401 -558.374174713 -7 -522 c 0
 -39.6669921875 -488 -52 -462 -52 -426 c 0
 -52 -395.333007812 -43.2312656448 -377.787516848 -23 -356 c 0
 -10 -342 3.33397591033 -334.286496527 34 -335 c 0
 62.6669921875 -335.666992188 69 -342 90 -359 c 0
 110.62125251 -375.693394889 112 -396 114 -422 c 0xbe60
 115.382691151 -439.974984957 82.5552537341 -452.118656647 82 -466 c 0
 81 -491 92 -510 130 -511 c 0
 166.63744762 -511.964143358 205.113022744 -487.281438004 222 -475 c 0
 255 -451 272.59099271 -432.170266403 302 -366 c 0
 326 -312 322 -256 322 -256 c 1
 250 -255 207.43386344 -251.430776433 168 -235 c 0
 132 -220 108 -194 78 -150 c 0
 48.4261580149 -106.625031755 25.8835971804 33.0576094962 23 105 c 0
 20.8623046875 158.333007812 39.2089795343 236.000002662 81 312 c 0
 113.274414062 370.693359375 134.653522843 390.740927049 182 432 c 0
 252 493 249 485 290 520 c 1
 299 623 277.755330691 709.940513254 290 803 c 0
 295 841 313.607421875 870.334960938 347 909 c 0
 366 931 398.335945452 944.177360542 437 945 c 0
EndSplineSet
EndChar
StartChar: noteheads.uM2
Encoding: 57742 57742 0
Width: 432
GlyphClass: 2
Flags: MW
HStem: -127 15 111 16<180.667 199.667>
VStem: -28 28<-183 -18 10 183> 404 28<-183 -21 -21 -21 10 800 -183 800>
LayerCount: 2
Fore
SplineSet
404 10 m 1
 404 800 l 1
 432 800 l 1
 432 -183 l 1
 404 -183 l 1
 404 -21 l 1
 398.666992188 -57.6669921875 374 -85.3330078125 330 -104 c 0
 292.666992188 -120 248.666992188 -127.666992188 198 -127 c 0
 149.333007812 -126.333007812 107 -117.333007812 71 -100 c 0
 29 -80.6669921875 5.3330078125 -53.3330078125 0 -18 c 1
 0 -183 l 1
 -28 -183 l 1
 -28 183 l 1
 0 183 l 1
 0 10 l 1
 5.3330078125 48.6669921875 28.3330078125 78.6669921875 69 100 c 0
 105 118 148 127 198 127 c 0
 248 127 292.333007812 117.333007812 331 98 c 0
 374.333007812 76.6669921875 398.666992188 47.3330078125 404 10 c 1
242 -108 m 0
 276.666992188 -97.3330078125 294 -69.3330078125 294 -24 c 0
 294 8.6669921875 284 38.6669921875 264 66 c 0
 242 96 215.333007812 111 184 111 c 0
 177.333007812 111 170.333007812 110 163 108 c 0
 131 100 115 73 115 27 c 0
 115 -7.6669921875 123 -38.3330078125 139 -65 c 0
 158.333007812 -96.3330078125 184.333007812 -112 217 -112 c 0
 225 -112 233.333007812 -110.666992188 242 -108 c 0
EndSplineSet
EndChar
StartChar: noteheads.sM1
Encoding: 57744 57744 2
Width: 507
GlyphClass: 2
Flags: MW
HStem: -254 21G<0 0 0 35 472 472 472 507> -129 70<35 472 35 472> 59 70<35 472 35 472> 234 20G<0 35 35 35 472 507 507 507>
VStem: 0 35<-254 -129 -59 59 129 254> 472 35<-254 -129 -129 -129 -59 59 59 59 129 254 -254 254>
LayerCount: 2
Fore
SplineSet
35 59 m 1
 35 -59 l 1
 472 -59 l 1
 472 59 l 1
 35 59 l 1
0 -254 m 1
 0 254 l 1
 35 254 l 1
 35 129 l 1
 472 129 l 1
 472 254 l 1
 507 254 l 1
 507 -254 l 1
 472 -254 l 1
 472 -129 l 1
 35 -129 l 1
 35 -254 l 1
 0 -254 l 1
EndSplineSet
EndChar
StartChar: noteheads.s0
Encoding: 57746 57746 9
Width: 406
GlyphClass: 2
Flags: MW
HStem: -126.982 16 111.018 16
VStem: 0.0146484 116 295.015 111
LayerCount: 2
Fore
SplineSet
242.014648438 -107.982421875 m 0
 277.34765625 -97.3154296875 295.013671875 -68.982421875 295.013671875 -22.982421875 c 0
 295.013671875 9.6845703125 285.013671875 39.6845703125 265.013671875 67.017578125 c 0
 243.013671875 96.3505859375 216.346679688 111.017578125 185.013671875 111.017578125 c 0
 177.680664062 111.017578125 170.34765625 110.017578125 163.014648438 108.017578125 c 0
 131.681640625 100.017578125 116.014648438 74.3505859375 116.014648438 31.017578125 c 0
 116.014648438 -3.6494140625 124.34765625 -34.982421875 141.014648438 -62.982421875 c 0
 160.34765625 -94.982421875 186.34765625 -110.982421875 219.014648438 -110.982421875 c 0
 226.34765625 -110.982421875 234.014648438 -109.982421875 242.014648438 -107.982421875 c 0
199.013671875 -126.982421875 m 0
 147.013671875 -126.315429688 102.34765625 -115.984375 65.0146484375 -95.984375 c 0
 21.0146484375 -71.984375 -0.65234375 -39.984375 0.0146484375 0.015625 c 0
 0.681640625 42.6826171875 22.0146484375 75.349609375 64.0146484375 98.0166015625 c 0
 100.014648438 117.349609375 145.014648438 127.016601562 199.014648438 127.016601562 c 0
 251.681640625 127.016601562 297.681640625 116.68359375 337.014648438 96.0166015625 c 0
 381.681640625 72.68359375 404.681640625 40.68359375 406.014648438 0.0166015625 c 0
 407.34765625 -43.31640625 385.014648438 -76.6494140625 339.014648438 -99.982421875 c 0
 300.34765625 -118.649414062 253.680664062 -127.649414062 199.013671875 -126.982421875 c 0
EndSplineSet
EndChar
StartChar: noteheads.s1
Encoding: 57747 57747 5
Width: 281
GlyphClass: 2
Flags: MW
HStem: -129 36<50.5 116.5> 97 31<164.5 235>
VStem: 0 27<-76.5 -23.5> 251 30<23.5 80.5>
LayerCount: 2
Fore
SplineSet
62 -93 m 0
 99 -93 136 -79 173 -52 c 0
 193 -37 211 -17 227 8 c 0
 243 33 251 55 251 72 c 0
 251 89 243 97 227 97 c 0
 196 97 157 81 111 49 c 0
 90 34 72 16 54 -8 c 0
 36 -32 27 -52 27 -68 c 0
 27 -85 39 -93 62 -93 c 0
192 -101 m 0
 161 -120 131 -129 102 -129 c 0
 70 -129 43 -117 22 -94 c 0
 7 -78 0 -59 0 -36 c 0
 0 -11 9 15 26 40 c 0
 43 65 63 85 88 100 c 0
 119 119 150 128 179 128 c 0
 210 128 236 117 257 96 c 0
 273 80 281 60 281 36 c 0
 281 11 273 -14 256 -40 c 0
 239 -66 217 -86 192 -101 c 0
EndSplineSet
EndChar
StartChar: noteheads.s2
Encoding: 57748 57748 24
Width: 281
GlyphClass: 2
Flags: HMW
HStem: -129 257<86 194.5>
VStem: 0 281<-47.5 48>
LayerCount: 2
Fore
SplineSet
192 -101 m 0
 161 -120 131 -129 102 -129 c 0
 70 -129 100.30078125 -80.7216796875 79 -58 c 4
 64 -42 0 -59 0 -36 c 0
 0 -11 9 15 26 40 c 0
 43 65 92 59 117 74 c 0
 148 93 150 128 179 128 c 0
 210 128 236 117 257 96 c 0
 273 80 281 60 281 36 c 0
 281 11 232 8 215 -18 c 0
 198 -44 216.857384441 -85.7648288907 192 -101 c 0
EndSplineSet
EndChar
StartChar: accidentalFlat
Encoding: 57952 57952 13
Width: 1000
HStem: 98 46<-31.157 58.9552>
VStem: -60 28<-101 95.474 126 324> 65 61<-12.4075 92.3807>
AnchorPoint: "stemUpSE" -31 144 basechar 0
LayerCount: 2
Fore
SplineSet
-32 92 m 1
 -32 -101 l 1
 -11 -75 22 -45 41 -16 c 0
 54.4796636128 4.57422340904 65 16 65 54 c 3
 65 74 52.0166620396 98 22 98 c 3
 -0.0907220343745 98 -18 97 -32 92 c 1
-60 324 m 1
 -34 324 l 1
 -32 126 l 1
 -10 133 5.72905879496 144 52 144 c 3
 87.0142828 144 126 112.11234224 126 72 c 3
 126 9.71035399041 98.1046456128 -28.0948653753 62 -68 c 0
 24 -110 -9 -134 -60 -159 c 1
 -60 324 l 1
EndSplineSet
EndChar
StartChar: uniE260
Encoding: 57952 57952 13
Width: 1000
Flags: H
LayerCount: 2
Fore
SplineSet
-32 92 m 1
 -32 -101 l 1
 -11 -75 22 -45 41 -16 c 0
 54.4796636128 4.57422340904 65 16 65 54 c 3
 65 74 52.0166620396 98 22 98 c 3
 -0.0907220343745 98 -18 97 -32 92 c 1
-60 324 m 1
 -34 324 l 1
 -32 126 l 5
 -10 133 5.72905879496 144 52 144 c 7
 87.0142828 144 126 112.11234224 126 72 c 3
 126 9.71035399041 98.1046456128 -28.0948653753 62 -68 c 0
 24 -110 -9 -134 -60 -159 c 1
 -60 324 l 1
EndSplineSet
EndChar
StartChar: uniE4A0
Encoding: 58528 58528 31
Width: 1000
Flags: H
LayerCount: 2
Fore
SplineSet
0 143 m 29
 0 183 l 1
 296 251 l 25
 0 317 l 25
 0 355 l 25
 430 253 l 1
 0 143 l 29
EndSplineSet
EndChar
StartChar: articStaccatoAbove
Encoding: 58530 58530 66
Width: 51
Flags: HW
LayerCount: 2
Fore
SplineSet
0 44 m 3
 0 58 13 67 27 67 c 3
 38 67 51 57.0332963784 51 42 c 7
 51 25.9687804581 41 16 28 16 c 3
 13 16 0 29 0 44 c 3
EndSplineSet
EndChar
StartChar: articTenutoAbove
Encoding: 58532 58532 67
Width: 387
Flags: HWO
LayerCount: 2
Fore
SplineSet
0 0 m 1
 0 31 l 1
 387 31 l 1
 387 0 l 1
 0 0 l 1
EndSplineSet
EndChar
StartChar: articStaccatissimoAbove
Encoding: 58534 58534 54
Width: 1000
Flags: H
LayerCount: 2
Fore
SplineSet
186 270 m 7
 206 270 211 277 214 285 c 4
 229.260747392 325.695326378 250 394 250 438 c 7
 250 450.165525061 246 460 229 470 c 4
 214.372503692 478.604409593 203 483 186 483 c 7
 167 483 155 480 141 471 c 4
 129.313975146 463.487555451 124 454 124 436 c 7
 124 391.593532407 148 321 160 285 c 4
 162.408318916 277.775043253 170.702941459 270 186 270 c 7
EndSplineSet
EndChar
StartChar: articStaccatissimoBelow
Encoding: 58535 58535 36
Width: 1000
Flags: HW
LayerCount: 2
Fore
SplineSet
186 -267 m 7
 206 -267 211 -274 214 -282 c 4
 229.260742188 -322.6953125 250 -391 250 -435 c 7
 250 -447.165039062 246 -457 229 -467 c 4
 214.372070312 -475.604492188 203 -480 186 -480 c 7
 167 -480 155 -477 141 -468 c 4
 129.314453125 -460.487304688 124 -451 124 -433 c 7
 124 -388.59375 148 -318 160 -282 c 4
 162.408203125 -274.775390625 170.703125 -267 186 -267 c 7
EndSplineSet
EndChar
StartChar: uniE4C0
Encoding: 58560 58560 34
Width: 340
Flags: W
HStem: 1 96<-46.4551 46.4551> 212 74<-127.617 145.649>
VStem: -56 112<11.3951 86.6049>
LayerCount: 2
Fore
SplineSet
-357 118 m 1
 -335 103 l 1
 -277 142 -285 145 -207 173 c 0
 -142.992143106 195.977179398 -74 212 0 212 c 0
 81.0555365166 212 184 190 221 172 c 0
 281.809837897 142.416835617 292 137 345 92 c 1
 356 98 l 1
 340 136 303.175986583 183.254009224 273 204 c 0
 241 226 224.043402613 242.15436926 154 262 c 0
 94 279 62.0554072004 286 0 286 c 0
 -70 286 -93.03125 280.103515625 -153 262 c 4
 -206 246 -223.248759427 238.065972523 -271 209 c 0
 -317 181 -330 159 -357 118 c 1
-56 49 m 0
 -56 75 -31 97 0 97 c 0
 31 97 56 75 56 49 c 0
 56 23 31 1 0 1 c 0
 -31 1 -56 23 -56 49 c 0
EndSplineSet
EndChar
StartChar: fermataBelow
Encoding: 58561 58561 35
Width: 1000
VWidth: 0
Flags: W
HStem: -286 74<-145.167 145.649> -97 96<-46.4551 46.4551>
VStem: -56 112<-86.6049 -11.3951>
LayerCount: 2
Fore
SplineSet
-357 -118 m 1
 -335 -103 l 1
 -277 -142 -285 -145 -207 -173 c 0
 -142.9921875 -195.977539062 -74 -212 0 -212 c 0
 81.0556640625 -212 184 -190 221 -172 c 0
 281.809570312 -142.416992188 292 -137 345 -92 c 1
 356 -98 l 1
 340 -136 303.17578125 -183.25390625 273 -204 c 0
 241 -226 224.04296875 -242.154296875 154 -262 c 0
 94 -279 62.0556640625 -286 0 -286 c 0
 -70 -286 -93.03125 -280.103515625 -153 -262 c 4
 -206 -246 -223.249023438 -238.06640625 -271 -209 c 0
 -317 -181 -330 -159 -357 -118 c 1
-56 -49 m 0
 -56 -75 -31 -97 0 -97 c 0
 31 -97 56 -75 56 -49 c 0
 56 -23 31 -1 0 -1 c 0
 -31 -1 -56 -23 -56 -49 c 0
EndSplineSet
EndChar
StartChar: restQuarter
Encoding: 58597 58597 14
Width: 413
Flags: HW
HStem: -196 24<386.024 395.024> -191 67<223.691 345.691>
VStem: 136.024 93
LayerCount: 2
Fore
SplineSet
255 432 m 1x60
 348 375 431 278 432 188 c 1
 392 126 377.779425869 109.824925278 341 65 c 0
 309 26 298 22 266 -21 c 1
 281 -52 323.712956033 -108.304887745 346 -129 c 0
 360 -142 392 -164 422.024414062 -178 c 1
 413.024414062 -202 l 1xa0
 395 -196 360.278320368 -184.550856826 326 -176 c 0
 277.993836558 -164.024680733 239.230647709 -160 198 -160 c 3
 171 -160 146 -168 74 -206 c 1
 69 -179 70 -187 67 -169 c 5
 143 -111 180 -104 246 -104 c 7
 277.333007812 -104 302.666992188 -114 332 -134 c 1
 208 -36 l 1
 224 -16 276 39 300 72 c 0
 321.773647814 101.938765744 358 148 358 218 c 3
 358 280 337.000976562 318.000976562 308 357 c 0
 295.313476562 374.060546875 253.666992188 408.333007812 245 415 c 1
 255 432 l 1x60
EndSplineSet
EndChar
StartChar: uniE4E5
Encoding: 58597 58597 19
Width: 1000
Flags: HO
LayerCount: 2
Fore
SplineSet
1000 652 m 1
 1042 652 l 1
 1047 639 1050 628 1063 615 c 0
 1077.03566885 600.964331152 1087 596 1106 596 c 3
 1128 596 1139.18893224 599.789783606 1147 607 c 0
 1160 619 1149.66113281 646.350585938 1160 656 c 0
 1175 670 1187 670 1204 670 c 3
 1227.02172887 670 1237.35058594 662.533203125 1249 647 c 0
 1261 631 1261 616 1261 596 c 3
 1261 571 1252.79774974 565.284754832 1233 551 c 0
 1210.93350234 535.078265801 1188.51377187 532.713803436 1152 525 c 1
 1295 307 l 1
 1241 306 l 1
 1227 324 1221.70501353 339.734318002 1210 353 c 0
 1195 370 1187 382 1165 382 c 3
 1148 382 1133.63693657 377.48995121 1120 367 c 0
 1107 357 1113.13289876 335.896416601 1103 323 c 0
 1092 309 1085 306 1067 306 c 3
 1046 306 1036 311 1029 321 c 0
 1018.79003906 335.5859375 1013 345.983875161 1013 377 c 3
 1013 407 1026.98287565 415.30317153 1051 433 c 0
 1070 447 1089 453 1119 463 c 1
 1000 652 l 1
EndSplineSet
EndChar
StartChar: rest8th
Encoding: 58598 58598 50
Width: 287
Flags: W
HStem: 1 21G<263 283.218> 186 80<100.009 175.619>
VStem: 263 20<1 292>
LayerCount: 2
Fore
SplineSet
283 1 m 5
 263 1 l 5
 263 292 l 5
 231 250 172 187 114 186 c 4
 52.0087890625 184.931640625 -1 227.333007812 -1 276 c 4
 -1 304.590820312 18 335 41 335 c 4
 62 335 71.37890625 322.950195312 93 298 c 4
 104.354492188 284.897460938 102 265 154 266 c 4
 178.016782758 266.461861207 206 284 221 298 c 4
 244.72265625 320.141601562 253 330 287 368 c 5
 283 1 l 5
EndSplineSet
EndChar
StartChar: restQuarterZ
Encoding: 58614 58614 48
Width: 365
Flags: W
HStem: -173 24<333.118 348.649> -131 56<66.9455 251.907>
VStem: 291 74<185.55 297.777>
LayerCount: 2
Fore
SplineSet
188 461 m 5
 281 404 364 307 365 217 c 5
 325 155 310.779296875 138.825195312 274 94 c 4
 242 55 231 51 199 8 c 5
 214 -23 256.712890625 -79.3046875 279 -100 c 4
 293 -113 325 -135 355.024414062 -149 c 5
 346.024414062 -173 l 5
 328 -167 293.278320312 -155.55078125 259 -147 c 4
 210.994140625 -135.024414062 172.23046875 -131 131 -131 c 7
 104 -131 79 -139 7 -177 c 5
 2 -150 3 -158 0 -140 c 5
 76 -82 113 -75 179 -75 c 7
 210.333007812 -75 235.666992188 -85 265 -105 c 5
 141 -7 l 5
 157 13 209 68 233 101 c 4
 254.7734375 130.938476562 291 177 291 247 c 7
 291 309 270.000976562 347.000976562 241 386 c 4
 228.313476562 403.060546875 186.666992188 437.333007812 178 444 c 5
 188 461 l 5
EndSplineSet
EndChar
StartChar: dynamicPiano
Encoding: 58656 58656 29
Width: 249
Flags: HW
LayerCount: 2
Fore
SplineSet
146 214 m 3
 146 209 150.349609375 193.240234375 153 189 c 0
 158 181 161 178 171 178 c 3
 186 178 200 194 207 207 c 0
 214 220 219 235.859375 219 268 c 3
 219 275.071289062 218 280 216 282 c 0
 211.47265625 286.52734375 207 288 200 288 c 27
 186 288 175 285 167 274 c 0
 152.155273438 253.588867188 146 239 146 214 c 3
0 4 m 1
 0 34 l 1
 19 36 29 39 44 50 c 24
 56 59 60 66 66 82 c 9
 100 250 l 1
 89 250 77.125 250.796875 73 241 c 0
 65 222 64 212 61 191 c 1
 34 190 l 1
 37 214 40.6220703125 245.727539062 50 268 c 0
 58 287 65 308 86 308 c 3
 104 308 109 294 127 294 c 3
 147 294 161 315 181 315 c 3
 208 315 227 310 239 295 c 0
 247 285 249 279.033203125 249 264 c 3
 249 231 246 199 230 174 c 0
 218.03125 155.298828125 194 136 172 136 c 3
 152 136 139 154 129 174 c 9
 104 70 l 1
 102 61 104 56 108 50 c 0
 112.771484375 42.8427734375 120 36 128 31 c 1
 128 3 l 1
 0 4 l 1
EndSplineSet
EndChar
StartChar: dynamicMezzo
Encoding: 58657 58657 68
Width: 427
Flags: HW
LayerCount: 2
Fore
SplineSet
14 7 m 1
 55 206 l 1
 59 219 61 228 61 242 c 27
 61 257 52 268 37 268 c 3
 19 268 11 257 0 240 c 9
 -29 260 l 1
 -18 278 -11.7933067938 290.837176979 0 306 c 0
 14 324 28 334 51 334 c 3
 71 334 80 318 96 296 c 1
 116 314 135.9857172 332 171 332 c 3
 212 332 220 312 241 278 c 1
 272 302 302 332 346 332 c 3
 378 332 427 295.140625 427 263 c 3
 427 231 423.192382812 215.961914062 417 185 c 1
 408 140 405.12890625 130.473632812 393 86 c 1
 390 75 387.874868052 65.8907734414 394 59 c 0
 402 50 407 48 420 41 c 1
 420 8 l 1
 318 8 l 1
 358 190 l 1
 360 200 367 223 367 237 c 3
 367 250 355 279 331 279 c 3
 306 279 268 262 262 228 c 1
 245 134 240 100 224 8 c 1
 196 8 190 8 160 8 c 1
 178 85 188 123 198 204 c 1
 200 224 202 229 202 246 c 3
 202 264 181 282 163 282 c 3
 135 282 123 252 117 226 c 1
 71 7 l 1
 14 7 l 1
EndSplineSet
EndChar
StartChar: dynamicForte
Encoding: 58658 58658 26
Width: 262
Flags: HW
LayerCount: 2
Fore
SplineSet
0 0 m 1
 88 290 l 25
 38 290 l 1
 38 320 l 1
 101 319 l 1
 108 345 112 364 122 386 c 0
 132.008557982 408.01882756 147.241942044 425.545165226 168 438 c 0
 173 441 184 444 208 444 c 3
 229 444 235.698242188 442.671875 252 428 c 0
 262 419 262 403 262 390 c 3
 262 380 258.358398438 371.501953125 253 364 c 0
 248 357 242 353 233 353 c 3
 220 353 208 361.350585938 208 374 c 3
 208 385.044921875 222 385.753788749 222 394 c 3
 222 408 212 412 202 412 c 3
 192 412 178.732421875 401.172851562 173 392 c 0
 158 368 149 351 143 320 c 1
 226 320 l 1
 226 288 l 1
 135 288 l 1
 81 0 l 1
 0 0 l 1
EndSplineSet
EndChar
StartChar: dynamicRinforzando
Encoding: 58659 58659 69
Width: 1000
Flags: H
LayerCount: 2
Fore
SplineSet
0 0 m 29
 107 392 l 25
 37 404 l 25
 35 458 l 25
 181 416 l 25
 335 484 l 25
 573 382 l 25
 487 278 l 25
 313 386 l 25
 177 332 l 25
 123 0 l 25
 0 0 l 29
EndSplineSet
EndChar
StartChar: dynamicSforzando
Encoding: 58660 58660 70
Width: 230
GlyphClass: 2
Flags: HW
HStem: 2 17<64.1033 139.497> 85 35<23.0814 67.4502> 173 35<162.55 206.919> 274 17<90.5028 165.897>
VStem: 0 23<49.4048 82.7473> 17 34<195.584 250.273> 179 34<42.7265 97.4157> 207 23<210.253 243.595>
LayerCount: 2
Fore
SplineSet
117 168 m 0xfa
 93.85546875 179.719726562 51 199 51 216 c 3
 51 230.036132812 56 244 75 257 c 0
 89.576171875 266.973632812 106.974609375 274 127 274 c 3
 146 274 170 266 181 257 c 0
 203.564453125 238.538085938 207 230.453125 207 223 c 0
 207 212.328125 192.64453125 208 186 208 c 3
 176.944335938 208 166 218 160 229 c 1
 152 226 146.33203125 222.498046875 142 216 c 0
 138 210 137 198 137 192 c 1
 161 175 177.237304688 173 194 173 c 3
 213.026367188 173 230 191 230 215 c 3
 230 235 224.744140625 251.94140625 206 266 c 0
 186 281 156 291 127 291 c 3
 85 291 64.46484375 278.470703125 52 268 c 0
 27 247 17 231 17 209 c 3xf5
 17 171.002929688 64 151 113 125 c 0
 136.14453125 113.280273438 179 94 179 77 c 3
 179 62.9638671875 174 49 155 36 c 0
 140.423828125 26.0263671875 123.025390625 19 103 19 c 3
 84 19 60 27 49 36 c 0
 26.435546875 54.4619140625 23 62.546875 23 70 c 0
 23 80.671875 37.35546875 85 44 85 c 3
 53.0556640625 85 64 75 70 64 c 1
 78 67 83.66796875 70.501953125 88 77 c 0
 92 83 93 95 93 101 c 1
 69 118 52.7626953125 120 36 120 c 3
 16.9736328125 120 0 102 0 78 c 3
 0 58 5.255859375 41.05859375 24 27 c 0
 44 12 74 2 103 2 c 3
 145 2 165.53515625 14.529296875 178 25 c 0
 203 46 213 62 213 84 c 3
 213 121.997070312 166 142 117 168 c 0xfa
EndSplineSet
EndChar
StartChar: dynamicZ
Encoding: 58661 58661 71
Width: 1000
Flags: H
LayerCount: 2
Fore
SplineSet
233 0 m 29
 0 0 l 25
 151 198 l 25
 35 210 l 25
 11 276 l 25
 249 238 l 25
 111 76 l 25
 283 66 l 25
 233 0 l 29
EndSplineSet
EndChar
StartChar: dynamicNiente
Encoding: 58662 58662 72
Width: 1000
Flags: H
LayerCount: 2
Fore
SplineSet
0 0 m 29
 99 294 l 25
 43 324 l 25
 93 360 l 25
 187 282 l 25
 261 340 l 25
 361 268 l 25
 307 0 l 25
 205 0 l 25
 185 188 l 25
 87 12 l 25
 0 0 l 29
EndSplineSet
EndChar
StartChar: gClef.variant1
Encoding: 62464 62464 21
Width: 1000
Flags: H
LayerCount: 2
Fore
SplineSet
263 508 m 1
 288 542 314 569 336 605 c 0
 346.109172427 621.542282154 354.842149173 639.117877722 361.052865746 671 c 5
 361.732626058 674.489484852 362.382171685 678.150350595 363 682 c 0
 369.021484375 719.522460938 372 731.992308147 372 797 c 3
 372 809.165525061 366 826 358 837 c 0
 350.108572634 847.850712628 337 859 315 859 c 3
 298.968780458 859 276 840 270 819 c 0
 251.206183273 753.221641455 247 724 247 660 c 3
 247 620 256 548 263 508 c 1
392 176 m 1
 417 38 439 -84 462 -224 c 1
 481 -203 512 -184 536 -154 c 0
 572.915317822 -107.855852722 590 -64 590 -4 c 3
 590 45 572 75 538 111 c 0
 506.911908645 143.916802611 458 172 392 176 c 1
0 0 m 3
 0 98 11.4004341244 135.858383213 44 229 c 0
 65 289 98 325 140 371 c 0
 167.915202171 401.573792854 204 451 230 484 c 1
 198 585 189 622 189 723 c 3
 189 779 202 822 233 869 c 24
 254 902 276 915 315 915 c 3
 350 915 369.369848712 895.132024483 390 867 c 0
 401 852 422 806 422 743 c 3
 422 687 407.937043368 619.025380489 387 567 c 0
 354 485 334.322710826 437.009393264 282 366 c 0
 240 309 201.619287978 288.660889178 168 228 c 0
 122 145 85 50.0099990002 85 0 c 3
 85 -100.079968026 90 -116 124 -159 c 0
 167.060612004 -213.459009299 194.995117188 -238 290 -238 c 3
 333 -238 381 -235 424 -234 c 1
 361 170 l 1
 324 156 293.115421576 140.875773763 264 114 c 0
 238 90 218 49 218 14 c 3
 218 -37 227 -66 270 -84 c 1
 270 -109 l 1
 226 -93 213.641927372 -99.2126996351 193 -64 c 0
 176 -35 168 -1 168 32 c 3
 168 90 177.095909946 129.926601129 212 176 c 0
 237 209 256 216 302 238 c 1
 475 245 l 1
 510 224 549.101584555 202.068374199 572 168 c 0
 613 107 629 70 629 -4 c 3
 629 -68 618 -104 582 -161 c 0
 561.70124132 -193.139701244 558.702319112 -195.682796844 531 -222 c 0
 511 -241 479 -254 457 -270 c 1
 453 -341 436 -377 421 -391 c 0
 393.162244746 -416.981904904 393.064737205 -419.935262795 366 -447 c 0
 348 -465 277.11234224 -521 237 -521 c 3
 182 -521 156.196289062 -517.697265625 110 -488 c 0
 82 -470 69 -436 69 -402 c 3
 69 -386.966703622 89.3228068188 -360.006767045 108 -348 c 0
 122 -339 140 -336 162 -336 c 27
 185 -336 198.937906217 -342.07066794 216 -357 c 0
 232 -371 240 -384 240 -405 c 3
 240 -415.198242188 238 -439 233 -470 c 1
 274 -453 309.465033517 -438.457934186 339 -408 c 0
 371 -375 396 -352 396 -306 c 3
 396 -290 395 -286 394 -270 c 1
 361 -275 309 -278 276 -278 c 3
 219 -278 215.139079924 -278.740842626 165 -252 c 0
 105 -220 76 -189 39 -132 c 24
 10 -87 0 -54 0 0 c 3
EndSplineSet
EndChar
StartChar: fClef.variant1
Encoding: 62465 62465 22
Width: 1306
Flags: HW
LayerCount: 2
Fore
SplineSet
705 152 m 3
 723.110351562 152 748 135 748 110 c 3
 748 89 728 62 703 62 c 3
 684 62 659 88 659 106 c 3
 659 135 681 152 705 152 c 3
704 -90 m 3
 722.110351562 -90 747 -107 747 -132 c 3
 747 -153 727 -180 702 -180 c 3
 683 -180 658 -154 658 -136 c 3
 658 -107 680 -90 704 -90 c 3
26 30 m 3
 26 69 47.0175444711 106.982456731 75 134 c 0
 104 162 132 182 172 198 c 0
 209.069335938 212.828125 244 216 283 216 c 3
 342 216 410 200 444 176 c 0
 486.016601562 146.341796875 507 133 523 100 c 0
 554.60800802 34.8084834584 564 0.0302960768767 564 -66 c 3
 564 -126.008332755 544 -198 526 -226 c 0
 479.206498646 -298.789890995 440 -336 394 -368 c 0
 324.049435108 -416.661262533 294 -436 194 -456 c 1
 182 -425 l 1
 238 -400 275.218974213 -377.244388692 312 -344 c 0
 364 -297 362 -296 392 -232 c 0
 412.900944466 -187.411318472 433 -133 433 -68 c 3
 433 -14 429.587114527 28.1652671029 413 80 c 0
 405 105 378.00017404 150.000222386 355 168 c 0
 335.936523438 182.918945312 312 192 280 192 c 3
 241 192 225.045743781 190.873479922 189 178 c 0
 161 168 110 137.681640625 110 108 c 3
 110 83.8134765625 116 79 124 72 c 0
 142.093170862 56.1684754953 150.47625878 59.1004797698 170 45 c 0
 188 32 192 18 192 -4 c 3
 192 -24 182.18255067 -39.1727879364 168 -54 c 0
 146 -77 133 -79 101 -79 c 3
 81.8950268255 -79 56 -65 44 -48 c 0
 32.111328125 -31.158203125 26 10 26 30 c 3
EndSplineSet
EndChar
StartChar: fClef.variant2
Encoding: 62467 62467 24
Width: 1000
Flags: H
LayerCount: 2
Fore
SplineSet
867 162 m 27
 885 162 900 147 900 129 c 27
 900 111 887 95 869 95 c 27
 850 95 831 106 831 125 c 27
 831 145 847 162 867 162 c 27
868 -85 m 27
 886 -85 901 -100 901 -118 c 27
 901 -136 888 -152 870 -152 c 27
 851 -152 832 -141 832 -122 c 27
 832 -102 848 -85 868 -85 c 27
12 -51 m 7
 12 15 20.566061608 61.928755656 58 116 c 0
 85 155 146 208 179 224 c 0
 255.06013484 260.877641134 283 268 367 268 c 3
 454 268 523 257 579 219 c 0
 622.605696515 189.410420222 640.728671139 173.857504393 664 130 c 0
 690 81 702 40.0124980475 702 0 c 3
 702 -45.0998891351 689 -88 673 -113 c 0
 646.187835447 -154.894007113 619.380509547 -188.398243862 578 -215 c 0
 536 -242 494 -254 440 -254 c 3
 378 -254 337 -242 296 -219 c 0
 256.948242188 -197.092773438 238.463641827 -183.695462741 214 -147 c 0
 192 -114 180 -73 180 -33 c 3
 180 -1.98387516146 196 31 211 51 c 0
 225.160508465 69.8806779539 263.304590517 104.41498653 281 114 c 0
 305 127 328 136 360 136 c 3
 399 136 428.941227268 133.029386366 463 116 c 0
 475 110 493.865004067 91.920762348 508 68 c 0
 521 46 527 26 527 0 c 3
 527 -25 524.799804688 -32.8583984375 510 -54 c 0
 496 -74 479 -84 455 -84 c 3
 423 -84 407.61249695 -82.2093727123 382 -63 c 0
 366 -51 357 -34 357 -14 c 3
 357 4 368.490234375 18.490234375 381 31 c 0
 391 41 398 44 413 49 c 0
 425.149074039 53.0496913463 439 60 439 73 c 3
 439 83 428.103515625 89.298828125 414 94 c 0
 399 99 381 101 365 101 c 3
 318.956542267 101 289 79 272 66 c 0
 240.525390625 41.9306640625 224 4 224 -36 c 3
 224 -86 253.420520133 -124.556033136 288 -160 c 0
 328 -201 387 -219 444 -219 c 3
 497 -219 523.614364664 -216.486471964 566 -185 c 0
 601 -159 628.142578125 -124.080078125 649 -87 c 0
 667 -55 668 -36 668 0 c 3
 668 40 658 70 631 111 c 0
 604 152 597 163 556 194 c 0
 506.403320312 231.5 440 237 378 237 c 3
 324 237 266.409301068 223.204650534 232 206 c 0
 188 184 131.258775784 149.839852017 94 90 c 0
 61 37 58 10 58 -53 c 3
 58 -115 94.3506640898 -178.754079629 130 -230 c 0
 162 -276 209.127929688 -312.76171875 282 -352 c 0
 347 -387 384.994253063 -400 472 -400 c 3
 558 -400 674 -378 718 -364 c 4
 770.202592792 -347.390084112 842 -304 912 -238 c 5
 911 -298 l 1
 838 -362 798.912997281 -388.589658838 748 -413 c 0
 675 -448 577 -480 494 -480 c 3
 400 -480 330.838354005 -463.421298325 260 -436 c 0
 198 -412 155.672728666 -388.244977947 116 -335 c 4
 40 -233 12 -181.015383705 12 -51 c 7
EndSplineSet
EndChar
StartChar: flags.variant1
Encoding: 62468 62468 25
Width: 1000
Flags: H
LayerCount: 2
Fore
SplineSet
0 -220 m 9
 0 -255 0 -311 0 -311 c 2
 -6.12323399574e-16 -321 5.9377422517 -324 14 -324 c 3
 18.1231056256 -324 23.34375 -322.462890625 28 -319 c 1
 96 -272 188 -198 230 -164 c 1
 256.51171875 -144.282226562 262 -128 262 -100 c 27
 262 -61 261 0 261 0 c 25
 235 0 l 1
 233 -35 228 -61 225 -71 c 0
 220.45703125 -86.14453125 217 -89 204 -97 c 1
 121 -149 86 -173 0 -220 c 9
EndSplineSet
EndChar
StartChar: signo.variant1
Encoding: 62469 62469 26
Width: 1000
Flags: HO
LayerCount: 2
Fore
SplineSet
378 753 m 17
 345 753 304.300479543 739.531729998 278 723 c 0
 243 701 215 677 193 645 c 0
 172.573242188 615.2890625 158 571 158 528 c 1
 158 528 95 528 59 528 c 1
 59 545 55 566 50 575 c 0
 44.072265625 585.669921875 39 587 27 587 c 3
 17 587 10 574 10 564 c 3
 10 552 12 549 16 538 c 0
 21.080078125 524.029296875 22 515 22 500 c 3
 22 486 22 477 17 464 c 0
 12.458984375 452.194335938 10 449 10 436 c 3
 10 427 16 418 25 418 c 3
 34 418 44 419 48 426 c 0
 56.6787109375 441.188476562 59 454 59 472 c 0
 59 472 123 473 162 471 c 17
 162 438 170.46875 391.30078125 187 365 c 0
 208.999023438 330 233 302 265 280 c 0
 294.7109375 259.573242188 339 245 382 245 c 1
 382 245 382 182 382 146 c 1
 365 146 344 142 335 137 c 0
 324.330078125 131.072265625 323 126 323 114 c 3
 323 104 336 97 346 97 c 3
 358 97 361 99 372 103 c 0
 385.970703125 108.080078125 395 109 410 109 c 3
 424 109 433 109 446 104 c 0
 457.805664062 99.458984375 461 97 474 97 c 3
 483 97 492 103 492 112 c 3
 492 121 491 131 484 135 c 0
 468.811523438 143.678710938 456 146 438 146 c 0
 438 146 440 206 442 244 c 17
 475 244 518.69921875 259.46875 545 276 c 0
 580 297.999023438 608 322 630 354 c 0
 650.426757812 383.7109375 665 428 665 471 c 1
 665 471 728 471 764 471 c 1
 764 454 768 433 773 424 c 0
 778.927734375 413.330078125 784 412 796 412 c 3
 806 412 813 425 813 435 c 3
 813 447 811 450 807 461 c 0
 801.919921875 474.970703125 801 484 801 499 c 3
 801 513 801 522 806 535 c 0
 810.541015625 546.805664062 813 550 813 563 c 3
 813 572 807 581 798 581 c 3
 789 581 779 580 775 573 c 0
 766.321289062 557.811523438 764 545 764 527 c 0
 764 527 705 530 665 535 c 17
 665 568 651.53125 608.69921875 635 635 c 0
 613 670 589 698 557 720 c 0
 527.2890625 740.426757812 483 755 440 755 c 1
 440 755 440 818 440 854 c 1
 457 854 478 858 487 863 c 0
 497.669921875 868.927734375 499 874 499 886 c 3
 499 896 486 903 476 903 c 3
 464 903 461 901 450 897 c 0
 436.029296875 891.919921875 427 891 412 891 c 3
 398 891 389 891 376 896 c 0
 364.194335938 900.541015625 361 903 348 903 c 3
 339 903 330 897 330 888 c 3
 330 879 331 869 338 865 c 0
 353.188476562 856.321289062 366 854 384 854 c 0
 384 854 381 790 378 753 c 17
598 468 m 1
 598 429 593 404 578 379 c 0
 560 349 543.311523438 333.541015625 514 314 c 0
 490 298 460 290 431 290 c 1
 431 355 431 403 431 468 c 1
 500 468 535 468 598 468 c 1
439 698 m 1
 478 698 503 693 528 678 c 0
 558 660 573.458984375 643.311523438 593 614 c 0
 609 590 617 560 617 531 c 1
 552 531 504 531 439 531 c 1
 439 600 439 635 439 698 c 1
392 296 m 1
 353 296 328 301 303 316 c 0
 273 334 257.541015625 350.688476562 238 380 c 0
 222 404 214 434 214 463 c 1
 279 463 327 463 392 463 c 1
 392 394 392 359 392 296 c 1
217 530 m 1
 217 569 222 594 237 619 c 0
 255 649 271.688476562 664.458984375 301 684 c 0
 325 700 355 708 384 708 c 1
 384 643 384 595 384 530 c 1
 315 530 280 530 217 530 c 1
EndSplineSet
EndChar
StartChar: segno.variant2
Encoding: 62470 62470 34
Width: 1000
Flags: HO
LayerCount: 2
Fore
SplineSet
59 208 m 31
 79 208 95 193 95 173 c 31
 95 153 79 136 59 136 c 31
 40 136 25 153 25 172 c 31
 25 191 40 208 59 208 c 31
74 358 m 31
 94 358 110 343 110 323 c 31
 110 303 94 286 74 286 c 31
 55 286 40 303 40 322 c 31
 40 341 55 358 74 358 c 31
449 183 m 27
 469 183 485 168 485 148 c 27
 485 128 469 111 449 111 c 27
 430 111 415 128 415 147 c 27
 415 166 430 183 449 183 c 27
464 333 m 27
 484 333 500 318 500 298 c 27
 500 278 484 261 464 261 c 27
 445 261 430 278 430 297 c 27
 430 316 445 333 464 333 c 27
372 250 m 1
 408 444 l 1
 392 440 384 438 368 438 c 3
 353 438 335.419063464 444.294628002 324 455 c 0
 308 470 296 482 268 482 c 3
 243.916810842 482 229.190429688 478.552734375 206 460 c 0
 181 440 158 396 158 360 c 3
 158 314 161.563239758 292.373868605 186 255 c 0
 203 229 224.153084066 219.199889585 249 200 c 0
 271 183 279.000246403 178.000308 304 158 c 0
 323.333007812 142.533203125 330 130 330 114 c 3
 330 97 328 87 320 79 c 0
 304.491937581 63.4919375807 285 56 259 56 c 3
 232 56 211 60 196 71 c 0
 176.968158716 84.9566836083 153 105 153 128 c 3
 153 165 159 187 171 222 c 1
 141 236 l 1
 103 36 l 1
 122 41 119 42 144 42 c 0
 164.615234375 42 174.389375151 21.7184764778 197 9 c 0
 213 0 243 0 270 0 c 3
 303 0 326 9 348 33 c 24
 373 61 381 86 381 123 c 3
 381 159 378 184 357 213 c 24
 335 243 309.76172038 237.678709715 280 260 c 0
 252 281 239.58292027 295.943147214 216 321 c 0
 200 338 196 341 196 364 c 3
 196 386 202 399 210 405 c 0
 222 414 252 419 267 419 c 3
 294 419 311.503024962 416.397580031 332 400 c 0
 347 388 358 358 358 338 c 3
 358 303 351 298 340 264 c 1
 372 250 l 1
EndSplineSet
EndChar
